<svg xmlns="http://www.w3.org/2000/svg" xmlns:xlink="http://www.w3.org/1999/xlink" width="2000" zoomAndPan="magnify" viewBox="0 0 1500 1499.999933" height="2000" preserveAspectRatio="xMidYMid meet" version="1.0"><defs><g/><clipPath id="db01144b27"><rect x="0" width="1118" y="0" height="594"/></clipPath></defs><g transform="matrix(1, 0, 0, 1, 191, 453)"><g clip-path="url(#db01144b27)"><g fill="#000000" fill-opacity="1"><g transform="translate(0.997981, 447.490168)"><g><path d="M 123.640625 -195.101562 C 111.832031 -211.148438 96.390625 -219.222656 76.605469 -219.222656 C 35.527344 -219.222656 8.476562 -188.238281 8.476562 -106.886719 C 8.476562 -26.949219 33.914062 5.652344 77.3125 5.652344 C 99.621094 5.652344 115.96875 -4.238281 127.273438 -23.417969 L 128.992188 0 L 189.953125 0 L 189.953125 -287.453125 L 123.640625 -287.453125 Z M 99.113281 -46.226562 C 84.074219 -46.226562 75.800781 -58.136719 75.800781 -107.390625 C 75.800781 -156.445312 84.175781 -168.859375 99.214844 -168.859375 C 115.871094 -168.859375 124.550781 -154.121094 124.550781 -107.695312 C 124.550781 -61.164062 115.769531 -46.226562 99.113281 -46.226562 Z M 99.113281 -46.226562 "/></g></g></g><g fill="#000000" fill-opacity="1"><g transform="translate(206.29325, 447.490168)"><g><path d="M 125.257812 -218.515625 C 99.519531 -218.515625 85.792969 -202.265625 77.917969 -178.953125 L 76 -213.875 L 15.441406 -213.875 L 15.441406 0 L 81.652344 0 L 81.652344 -112.035156 C 81.855469 -140.699219 93.765625 -152.808594 124.449219 -152.808594 C 128.183594 -152.808594 132.121094 -152.609375 136.15625 -152.304688 L 136.15625 -217.507812 C 132.320312 -218.214844 128.789062 -218.515625 125.257812 -218.515625 Z M 125.257812 -218.515625 "/></g></g></g><g fill="#000000" fill-opacity="1"><g transform="translate(348.304305, 447.490168)"><g><path d="M 100.324219 5.753906 C 158.460938 5.753906 192.375 -27.757812 192.375 -106.988281 C 192.375 -185.914062 158.460938 -219.324219 100.324219 -219.324219 C 42.492188 -219.324219 8.476562 -186.015625 8.476562 -106.988281 C 8.476562 -27.65625 42.289062 5.753906 100.324219 5.753906 Z M 100.324219 -41.988281 C 83.46875 -41.988281 75.800781 -54.402344 75.800781 -106.988281 C 75.800781 -159.371094 83.46875 -171.683594 100.324219 -171.683594 C 117.382812 -171.683594 125.054688 -158.867188 125.054688 -106.988281 C 125.054688 -54.804688 117.484375 -41.988281 100.324219 -41.988281 Z M 100.324219 -41.988281 "/></g></g></g><g fill="#000000" fill-opacity="1"><g transform="translate(549.158519, 447.490168)"><g><path d="M 128.789062 -219.222656 C 107.089844 -219.222656 90.433594 -209.332031 78.121094 -189.75 L 76.304688 -213.875 L 15.441406 -213.875 L 15.441406 77.113281 L 81.652344 77.113281 L 81.652344 -17.765625 C 92.65625 -2.320312 107.796875 5.652344 127.878906 5.652344 C 171.382812 5.652344 196.816406 -27.65625 196.816406 -107.695312 C 196.816406 -188.84375 169.867188 -219.222656 128.789062 -219.222656 Z M 105.878906 -46.226562 C 89.527344 -46.226562 80.746094 -60.660156 80.746094 -107.59375 C 80.746094 -154.425781 89.527344 -168.859375 105.976562 -168.859375 C 121.21875 -168.859375 129.597656 -157.050781 129.597656 -108.199219 C 129.597656 -59.550781 121.117188 -46.226562 105.878906 -46.226562 Z M 105.878906 -46.226562 "/></g></g></g><g fill="#000000" fill-opacity="1"><g transform="translate(754.453789, 447.490168)"><g><path d="M 100.324219 5.753906 C 158.460938 5.753906 192.375 -27.757812 192.375 -106.988281 C 192.375 -185.914062 158.460938 -219.324219 100.324219 -219.324219 C 42.492188 -219.324219 8.476562 -186.015625 8.476562 -106.988281 C 8.476562 -27.65625 42.289062 5.753906 100.324219 5.753906 Z M 100.324219 -41.988281 C 83.46875 -41.988281 75.800781 -54.402344 75.800781 -106.988281 C 75.800781 -159.371094 83.46875 -171.683594 100.324219 -171.683594 C 117.382812 -171.683594 125.054688 -158.867188 125.054688 -106.988281 C 125.054688 -54.804688 117.484375 -41.988281 100.324219 -41.988281 Z M 100.324219 -41.988281 "/></g></g></g><g fill="#000000" fill-opacity="1"><g transform="translate(955.308003, 447.490168)"><g><path d="M 136.964844 0 L 136.964844 -287.453125 L 81.351562 -287.453125 C 73.175781 -240.921875 49.355469 -231.4375 14.128906 -231.4375 L 10.800781 -231.4375 L 10.800781 -180.769531 L 66.109375 -180.769531 L 66.109375 0 Z M 136.964844 0 "/></g></g></g></g></g></svg>