<svg xmlns="http://www.w3.org/2000/svg" xmlns:xlink="http://www.w3.org/1999/xlink" width="816" zoomAndPan="magnify" viewBox="0 0 612 791.999994" height="1056" preserveAspectRatio="xMidYMid meet" version="1.0"><defs><g/><clipPath id="8965ccfa54"><rect x="0" width="393" y="0" height="760"/></clipPath></defs><rect x="-61.2" width="734.4" fill="#ffffff" y="-79.199999" height="950.399992" fill-opacity="1"/><rect x="-61.2" width="734.4" fill="#c0a1a9" y="-79.199999" height="950.399992" fill-opacity="1"/><g transform="matrix(1, 0, 0, 1, 110, 16)"><g clip-path="url(#8965ccfa54)"><g fill="#000000" fill-opacity="1"><g transform="translate(0.534682, 607.080206)"><g><path d="M 34.15625 0 L 34.15625 -531.359375 L 195.84375 -531.359375 C 254.539062 -531.359375 297.929688 -508.960938 326.015625 -464.171875 C 354.109375 -419.390625 368.15625 -353.222656 368.15625 -265.671875 C 368.15625 -178.628906 354.109375 -112.585938 326.015625 -67.546875 C 297.929688 -22.515625 254.539062 0 195.84375 0 Z M 135.109375 -86.53125 L 181.421875 -86.53125 C 210.265625 -86.53125 231.894531 -100.570312 246.3125 -128.65625 C 260.738281 -156.75 267.953125 -202.421875 267.953125 -265.671875 C 267.953125 -329.441406 260.738281 -375.238281 246.3125 -403.0625 C 231.894531 -430.894531 210.265625 -444.8125 181.421875 -444.8125 L 135.109375 -444.8125 Z M 135.109375 -86.53125 "/></g></g></g></g></g></svg>