<svg xmlns="http://www.w3.org/2000/svg" xmlns:xlink="http://www.w3.org/1999/xlink" width="816" zoomAndPan="magnify" viewBox="0 0 612 791.999994" height="1056" preserveAspectRatio="xMidYMid meet" version="1.0"><defs><g/><clipPath id="6e64388472"><rect x="0" width="372" y="0" height="760"/></clipPath></defs><rect x="-61.2" width="734.4" fill="#ffffff" y="-79.199999" height="950.399992" fill-opacity="1"/><rect x="-61.2" width="734.4" fill="#ffffff" y="-79.199999" height="950.399992" fill-opacity="1"/><g transform="matrix(1, 0, 0, 1, 120, 16)"><g clip-path="url(#6e64388472)"><g fill="#000000" fill-opacity="1"><g transform="translate(0.782955, 607.080221)"><g><path d="M 34.15625 0 L 34.15625 -531.359375 L 175.34375 -531.359375 C 234.050781 -531.359375 276.429688 -517.441406 302.484375 -489.609375 C 328.546875 -461.773438 341.578125 -418.757812 341.578125 -360.5625 C 341.578125 -324.125 336.515625 -293.882812 326.390625 -269.84375 C 316.273438 -245.8125 300.085938 -227.21875 277.828125 -214.0625 C 295.023438 -198.375 307.675781 -177.625 315.78125 -151.8125 L 366.640625 0 L 262.640625 0 L 216.34375 -135.109375 C 211.28125 -148.273438 204.570312 -158.019531 196.21875 -164.34375 C 187.875 -170.664062 173.832031 -173.828125 154.09375 -173.828125 L 135.109375 -173.828125 L 135.109375 0 Z M 135.109375 -260.359375 L 167 -260.359375 C 192.300781 -260.359375 211.023438 -267.695312 223.171875 -282.375 C 235.316406 -297.050781 241.390625 -320.332031 241.390625 -352.21875 C 241.390625 -384.09375 235.316406 -407.492188 223.171875 -422.421875 C 211.023438 -437.347656 192.300781 -444.8125 167 -444.8125 L 135.109375 -444.8125 Z M 135.109375 -260.359375 "/></g></g></g></g></g></svg>