<svg xmlns="http://www.w3.org/2000/svg" xmlns:xlink="http://www.w3.org/1999/xlink" width="816" zoomAndPan="magnify" viewBox="0 0 612 791.999994" height="1056" preserveAspectRatio="xMidYMid meet" version="1.0"><defs><g/><clipPath id="a352248c17"><rect x="0" width="388" y="0" height="760"/></clipPath></defs><rect x="-61.2" width="734.4" fill="#ffffff" y="-79.199999" height="950.399992" fill-opacity="1"/><rect x="-61.2" width="734.4" fill="#004b22" y="-79.199999" height="950.399992" fill-opacity="1"/><g transform="matrix(1, 0, 0, 1, 112, 16)"><g clip-path="url(#a352248c17)"><g fill="#000000" fill-opacity="1"><g transform="translate(0.434013, 607.080106)"><g><path d="M 193.5625 7.59375 C 133.34375 7.59375 89.820312 -14.039062 63 -57.3125 C 36.175781 -100.582031 22.765625 -170.035156 22.765625 -265.671875 C 22.765625 -361.828125 36.175781 -431.410156 63 -474.421875 C 89.820312 -517.441406 133.34375 -538.953125 193.5625 -538.953125 C 253.78125 -538.953125 297.300781 -517.441406 324.125 -474.421875 C 350.945312 -431.410156 364.359375 -361.828125 364.359375 -265.671875 C 364.359375 -170.035156 350.945312 -100.582031 324.125 -57.3125 C 297.300781 -14.039062 253.78125 7.59375 193.5625 7.59375 Z M 123.734375 -265.671875 C 123.734375 -214.054688 126.132812 -174.835938 130.9375 -148.015625 C 135.75 -121.203125 143.34375 -102.984375 153.71875 -93.359375 C 164.09375 -83.742188 177.375 -78.9375 193.5625 -78.9375 C 210.257812 -78.9375 223.796875 -83.742188 234.171875 -93.359375 C 244.546875 -102.984375 252.132812 -121.203125 256.9375 -148.015625 C 261.75 -174.835938 264.15625 -214.054688 264.15625 -265.671875 C 264.15625 -317.796875 261.75 -357.140625 256.9375 -383.703125 C 252.132812 -410.273438 244.546875 -428.367188 234.171875 -437.984375 C 223.796875 -447.597656 210.257812 -452.40625 193.5625 -452.40625 C 177.375 -452.40625 164.09375 -447.472656 153.71875 -437.609375 C 143.34375 -427.742188 135.75 -409.398438 130.9375 -382.578125 C 126.132812 -355.753906 123.734375 -316.785156 123.734375 -265.671875 Z M 123.734375 -265.671875 "/></g></g></g></g></g></svg>