<svg xmlns="http://www.w3.org/2000/svg" xmlns:xlink="http://www.w3.org/1999/xlink" width="816" zoomAndPan="magnify" viewBox="0 0 612 791.999994" height="1056" preserveAspectRatio="xMidYMid meet" version="1.0"><defs><g/></defs><rect x="-61.2" width="734.4" fill="#ffffff" y="-79.199999" height="950.399992" fill-opacity="1"/><rect x="-61.2" width="734.4" fill="#000000" y="-79.199999" height="950.399992" fill-opacity="1"/><g fill="#ffffff" fill-opacity="1"><g transform="translate(127.617183, 622.951631)"><g><path d="M 34.15625 0 L 34.15625 -531.359375 L 175.34375 -531.359375 C 234.050781 -531.359375 276.429688 -516.679688 302.484375 -487.328125 C 328.546875 -457.972656 341.578125 -412.679688 341.578125 -351.453125 C 341.578125 -290.222656 328.421875 -245.3125 302.109375 -216.71875 C 275.796875 -188.125 233.539062 -173.828125 175.34375 -173.828125 L 135.109375 -173.828125 L 135.109375 0 Z M 135.109375 -260.359375 L 167 -260.359375 C 192.300781 -260.359375 211.023438 -267.695312 223.171875 -282.375 C 235.316406 -297.050781 241.390625 -320.332031 241.390625 -352.21875 C 241.390625 -384.09375 235.316406 -407.492188 223.171875 -422.421875 C 211.023438 -437.347656 192.300781 -444.8125 167 -444.8125 L 135.109375 -444.8125 Z M 135.109375 -260.359375 "/></g></g></g></svg>