<svg xmlns="http://www.w3.org/2000/svg" xmlns:xlink="http://www.w3.org/1999/xlink" width="816" zoomAndPan="magnify" viewBox="0 0 612 791.999994" height="1056" preserveAspectRatio="xMidYMid meet" version="1.0"><defs><g/></defs><rect x="-61.2" width="734.4" fill="#ffffff" y="-79.199999" height="950.399992" fill-opacity="1"/><rect x="-61.2" width="734.4" fill="#6d0100" y="-79.199999" height="950.399992" fill-opacity="1"/><g fill="#ffffff" fill-opacity="1"><g transform="translate(150.386714, 581.339053)"><g><path d="M 155.609375 7.59375 C 109.554688 7.59375 75.898438 -8.09375 54.640625 -39.46875 C 33.390625 -70.84375 22.765625 -120.941406 22.765625 -189.765625 C 22.765625 -259.097656 33.390625 -309.320312 54.640625 -340.4375 C 75.898438 -371.5625 109.554688 -387.125 155.609375 -387.125 C 201.660156 -387.125 235.3125 -371.5625 256.5625 -340.4375 C 277.820312 -309.320312 288.453125 -259.097656 288.453125 -189.765625 C 288.453125 -120.941406 277.820312 -70.84375 256.5625 -39.46875 C 235.3125 -8.09375 201.660156 7.59375 155.609375 7.59375 Z M 112.34375 -189.765625 C 112.34375 -156.867188 113.859375 -131.566406 116.890625 -113.859375 C 119.929688 -96.148438 124.738281 -84.003906 131.3125 -77.421875 C 137.894531 -70.847656 145.992188 -67.5625 155.609375 -67.5625 C 165.734375 -67.5625 173.957031 -70.847656 180.28125 -77.421875 C 186.601562 -84.003906 191.410156 -96.148438 194.703125 -113.859375 C 197.992188 -131.566406 199.640625 -156.867188 199.640625 -189.765625 C 199.640625 -223.171875 197.992188 -248.601562 194.703125 -266.0625 C 191.410156 -283.519531 186.601562 -295.535156 180.28125 -302.109375 C 173.957031 -308.691406 165.734375 -311.984375 155.609375 -311.984375 C 145.992188 -311.984375 137.894531 -308.691406 131.3125 -302.109375 C 124.738281 -295.535156 119.929688 -283.519531 116.890625 -266.0625 C 113.859375 -248.601562 112.34375 -223.171875 112.34375 -189.765625 Z M 112.34375 -189.765625 "/></g></g></g></svg>