<svg xmlns="http://www.w3.org/2000/svg" xmlns:xlink="http://www.w3.org/1999/xlink" width="816" zoomAndPan="magnify" viewBox="0 0 612 791.999994" height="1056" preserveAspectRatio="xMidYMid meet" version="1.0"><defs><g/></defs><rect x="-61.2" width="734.4" fill="#ffffff" y="-79.199999" height="950.399992" fill-opacity="1"/><rect x="-61.2" width="734.4" fill="#ffffff" y="-79.199999" height="950.399992" fill-opacity="1"/><g fill="#000000" fill-opacity="1"><g transform="translate(191.308587, 181.139073)"><g><path d="M 2.65625 0 L 2.65625 -41.296875 L 15.21875 -41.296875 C 19.78125 -41.296875 23.148438 -39.554688 25.328125 -36.078125 C 27.515625 -32.597656 28.609375 -27.457031 28.609375 -20.65625 C 28.609375 -13.882812 27.515625 -8.75 25.328125 -5.25 C 23.148438 -1.75 19.78125 0 15.21875 0 Z M 10.5 -6.71875 L 14.09375 -6.71875 C 16.34375 -6.71875 18.023438 -7.8125 19.140625 -10 C 20.265625 -12.1875 20.828125 -15.738281 20.828125 -20.65625 C 20.828125 -25.601562 20.265625 -29.160156 19.140625 -31.328125 C 18.023438 -33.492188 16.34375 -34.578125 14.09375 -34.578125 L 10.5 -34.578125 Z M 10.5 -6.71875 "/></g></g></g><g fill="#000000" fill-opacity="1"><g transform="translate(221.689537, 181.139073)"><g><path d="M 15.046875 0.59375 C 10.367188 0.59375 6.984375 -1.085938 4.890625 -4.453125 C 2.804688 -7.816406 1.765625 -13.21875 1.765625 -20.65625 C 1.765625 -28.125 2.804688 -33.53125 4.890625 -36.875 C 6.984375 -40.21875 10.367188 -41.890625 15.046875 -41.890625 C 19.722656 -41.890625 23.101562 -40.21875 25.1875 -36.875 C 27.269531 -33.53125 28.3125 -28.125 28.3125 -20.65625 C 28.3125 -13.21875 27.269531 -7.816406 25.1875 -4.453125 C 23.101562 -1.085938 19.722656 0.59375 15.046875 0.59375 Z M 9.609375 -20.65625 C 9.609375 -16.632812 9.796875 -13.582031 10.171875 -11.5 C 10.546875 -9.414062 11.132812 -8 11.9375 -7.25 C 12.75 -6.507812 13.785156 -6.140625 15.046875 -6.140625 C 16.335938 -6.140625 17.382812 -6.507812 18.1875 -7.25 C 19 -8 19.59375 -9.414062 19.96875 -11.5 C 20.34375 -13.582031 20.53125 -16.632812 20.53125 -20.65625 C 20.53125 -24.707031 20.34375 -27.765625 19.96875 -29.828125 C 19.59375 -31.890625 19 -33.289062 18.1875 -34.03125 C 17.382812 -34.78125 16.335938 -35.15625 15.046875 -35.15625 C 13.785156 -35.15625 12.75 -34.769531 11.9375 -34 C 11.132812 -33.238281 10.546875 -31.816406 10.171875 -29.734375 C 9.796875 -27.648438 9.609375 -24.625 9.609375 -20.65625 Z M 9.609375 -20.65625 "/></g></g></g><g fill="#000000" fill-opacity="1"><g transform="translate(251.775527, 181.139073)"><g><path d="M 2.65625 0 L 2.65625 -41.296875 L 10.5 -41.296875 L 20.234375 -17.9375 L 20.234375 -41.296875 L 28.03125 -41.296875 L 28.03125 0 L 20.234375 0 L 10.5 -23.359375 L 10.5 0 Z M 2.65625 0 "/></g></g></g><g fill="#000000" fill-opacity="1"><g transform="translate(282.451448, 181.139073)"><g><path d="M 1.359375 -28.90625 C 3.523438 -28.90625 4.609375 -29.988281 4.609375 -32.15625 L 4.609375 -33.859375 L 1.765625 -33.859375 L 1.765625 -41.234375 L 9.140625 -41.234375 L 9.140625 -32.15625 C 9.140625 -29.945312 8.554688 -28.203125 7.390625 -26.921875 C 6.234375 -25.648438 4.222656 -25.015625 1.359375 -25.015625 Z M 1.359375 -28.90625 "/></g></g></g><g fill="#000000" fill-opacity="1"><g transform="translate(293.364991, 181.139073)"><g><path d="M 9.203125 0 L 9.203125 -34.578125 L 0.46875 -34.578125 L 0.46875 -41.296875 L 25.84375 -41.296875 L 25.84375 -34.578125 L 17.046875 -34.578125 L 17.046875 0 Z M 9.203125 0 "/></g></g></g><g fill="#000000" fill-opacity="1"><g transform="translate(314.8969, 181.139073)"><g/></g></g><g fill="#000000" fill-opacity="1"><g transform="translate(330.529814, 181.139073)"><g><path d="M 2.65625 0 L 2.65625 -41.296875 L 10.5 -41.296875 L 10.5 -6.71875 L 25.078125 -6.71875 L 25.078125 0 Z M 2.65625 0 "/></g></g></g><g fill="#000000" fill-opacity="1"><g transform="translate(356.781323, 181.139073)"><g><path d="M 2.65625 0 L 2.65625 -41.296875 L 25.078125 -41.296875 L 25.078125 -34.578125 L 10.5 -34.578125 L 10.5 -24.015625 L 21.421875 -24.015625 L 21.421875 -17.34375 L 10.5 -17.34375 L 10.5 -6.71875 L 25.078125 -6.71875 L 25.078125 0 Z M 2.65625 0 "/></g></g></g><g fill="#000000" fill-opacity="1"><g transform="translate(383.504775, 181.139073)"><g><path d="M 9.203125 0 L 9.203125 -34.578125 L 0.46875 -34.578125 L 0.46875 -41.296875 L 25.84375 -41.296875 L 25.84375 -34.578125 L 17.046875 -34.578125 L 17.046875 0 Z M 9.203125 0 "/></g></g></g><g fill="#000000" fill-opacity="1"><g transform="translate(405.046862, 181.139073)"><g/></g></g><g fill="#000000" fill-opacity="1"><g transform="translate(111.843748, 263.639069)"><g><path d="M 9.375 0 L 9.375 -14.515625 L 0 -41.296875 L 8.265625 -41.296875 L 13.28125 -24.78125 L 18.171875 -41.296875 L 26.4375 -41.296875 L 17.171875 -14.515625 L 17.171875 0 Z M 9.375 0 "/></g></g></g><g fill="#000000" fill-opacity="1"><g transform="translate(136.207406, 263.639069)"><g><path d="M 15.046875 0.59375 C 10.367188 0.59375 6.984375 -1.085938 4.890625 -4.453125 C 2.804688 -7.816406 1.765625 -13.21875 1.765625 -20.65625 C 1.765625 -28.125 2.804688 -33.53125 4.890625 -36.875 C 6.984375 -40.21875 10.367188 -41.890625 15.046875 -41.890625 C 19.722656 -41.890625 23.101562 -40.21875 25.1875 -36.875 C 27.269531 -33.53125 28.3125 -28.125 28.3125 -20.65625 C 28.3125 -13.21875 27.269531 -7.816406 25.1875 -4.453125 C 23.101562 -1.085938 19.722656 0.59375 15.046875 0.59375 Z M 9.609375 -20.65625 C 9.609375 -16.632812 9.796875 -13.582031 10.171875 -11.5 C 10.546875 -9.414062 11.132812 -8 11.9375 -7.25 C 12.75 -6.507812 13.785156 -6.140625 15.046875 -6.140625 C 16.335938 -6.140625 17.382812 -6.507812 18.1875 -7.25 C 19 -8 19.59375 -9.414062 19.96875 -11.5 C 20.34375 -13.582031 20.53125 -16.632812 20.53125 -20.65625 C 20.53125 -24.707031 20.34375 -27.765625 19.96875 -29.828125 C 19.59375 -31.890625 19 -33.289062 18.1875 -34.03125 C 17.382812 -34.78125 16.335938 -35.15625 15.046875 -35.15625 C 13.785156 -35.15625 12.75 -34.769531 11.9375 -34 C 11.132812 -33.238281 10.546875 -31.816406 10.171875 -29.734375 C 9.796875 -27.648438 9.609375 -24.625 9.609375 -20.65625 Z M 9.609375 -20.65625 "/></g></g></g><g fill="#000000" fill-opacity="1"><g transform="translate(166.293395, 263.639069)"><g><path d="M 15.34375 0.59375 C 10.894531 0.59375 7.664062 -0.566406 5.65625 -2.890625 C 3.65625 -5.210938 2.65625 -8.457031 2.65625 -12.625 L 2.65625 -41.296875 L 10.5 -41.296875 L 10.5 -11.5 C 10.5 -9.851562 10.921875 -8.546875 11.765625 -7.578125 C 12.609375 -6.617188 13.835938 -6.140625 15.453125 -6.140625 C 17.066406 -6.140625 18.265625 -6.617188 19.046875 -7.578125 C 19.835938 -8.546875 20.234375 -9.851562 20.234375 -11.5 L 20.234375 -41.296875 L 28.03125 -41.296875 L 28.03125 -12.625 C 28.03125 -8.457031 27.023438 -5.210938 25.015625 -2.890625 C 23.003906 -0.566406 19.78125 0.59375 15.34375 0.59375 Z M 15.34375 0.59375 "/></g></g></g><g fill="#000000" fill-opacity="1"><g transform="translate(196.969316, 263.639069)"><g><path d="M 2.65625 0 L 2.65625 -41.296875 L 13.625 -41.296875 C 18.1875 -41.296875 21.476562 -40.210938 23.5 -38.046875 C 25.53125 -35.890625 26.546875 -32.550781 26.546875 -28.03125 C 26.546875 -25.195312 26.148438 -22.84375 25.359375 -20.96875 C 24.578125 -19.101562 23.320312 -17.660156 21.59375 -16.640625 C 22.925781 -15.421875 23.910156 -13.804688 24.546875 -11.796875 L 28.5 0 L 20.40625 0 L 16.8125 -10.5 C 16.414062 -11.519531 15.894531 -12.273438 15.25 -12.765625 C 14.601562 -13.265625 13.515625 -13.515625 11.984375 -13.515625 L 10.5 -13.515625 L 10.5 0 Z M 10.5 -20.234375 L 12.984375 -20.234375 C 14.953125 -20.234375 16.40625 -20.800781 17.34375 -21.9375 C 18.289062 -23.082031 18.765625 -24.894531 18.765625 -27.375 C 18.765625 -29.851562 18.289062 -31.671875 17.34375 -32.828125 C 16.40625 -33.992188 14.953125 -34.578125 12.984375 -34.578125 L 10.5 -34.578125 Z M 10.5 -20.234375 "/></g></g></g><g fill="#000000" fill-opacity="1"><g transform="translate(225.757489, 263.639069)"><g/></g></g><g fill="#000000" fill-opacity="1"><g transform="translate(241.390403, 263.639069)"><g><path d="M 2.65625 0 L 2.65625 -41.296875 L 14.515625 -41.296875 C 18.640625 -41.296875 21.617188 -40.359375 23.453125 -38.484375 C 25.285156 -36.617188 26.203125 -33.878906 26.203125 -30.265625 C 26.203125 -27.984375 25.835938 -26.046875 25.109375 -24.453125 C 24.378906 -22.859375 23.207031 -21.648438 21.59375 -20.828125 C 23.71875 -20.160156 25.257812 -19 26.21875 -17.34375 C 27.1875 -15.695312 27.671875 -13.554688 27.671875 -10.921875 C 27.671875 -7.335938 26.765625 -4.617188 24.953125 -2.765625 C 23.148438 -0.921875 20.203125 0 16.109375 0 Z M 10.5 -6.71875 L 14.09375 -6.71875 C 16.101562 -6.71875 17.5625 -7.160156 18.46875 -8.046875 C 19.375 -8.929688 19.828125 -10.28125 19.828125 -12.09375 C 19.828125 -13.90625 19.375 -15.242188 18.46875 -16.109375 C 17.5625 -16.972656 16.101562 -17.40625 14.09375 -17.40625 L 10.5 -17.40625 Z M 10.5 -23.890625 L 12.5625 -23.890625 C 14.613281 -23.890625 16.085938 -24.320312 16.984375 -25.1875 C 17.890625 -26.050781 18.34375 -27.390625 18.34375 -29.203125 C 18.34375 -31.054688 17.890625 -32.414062 16.984375 -33.28125 C 16.085938 -34.144531 14.613281 -34.578125 12.5625 -34.578125 L 10.5 -34.578125 Z M 10.5 -23.890625 "/></g></g></g><g fill="#000000" fill-opacity="1"><g transform="translate(270.355547, 263.639069)"><g><path d="M 2.65625 0 L 2.65625 -41.296875 L 25.078125 -41.296875 L 25.078125 -34.578125 L 10.5 -34.578125 L 10.5 -24.015625 L 21.421875 -24.015625 L 21.421875 -17.34375 L 10.5 -17.34375 L 10.5 -6.71875 L 25.078125 -6.71875 L 25.078125 0 Z M 2.65625 0 "/></g></g></g><g fill="#000000" fill-opacity="1"><g transform="translate(297.078987, 263.639069)"><g><path d="M 14.34375 0.59375 C 10.09375 0.59375 6.882812 -0.300781 4.71875 -2.09375 C 2.550781 -3.882812 1.46875 -6.882812 1.46875 -11.09375 L 1.46875 -12.453125 L 9.328125 -12.453125 L 9.328125 -10.796875 C 9.328125 -9.335938 9.769531 -8.195312 10.65625 -7.375 C 11.539062 -6.550781 12.769531 -6.140625 14.34375 -6.140625 C 15.945312 -6.140625 17.171875 -6.597656 18.015625 -7.515625 C 18.867188 -8.441406 19.296875 -9.65625 19.296875 -11.15625 C 19.296875 -12.488281 18.941406 -13.578125 18.234375 -14.421875 C 17.523438 -15.265625 16.421875 -15.984375 14.921875 -16.578125 L 11.328125 -18.171875 C 9.554688 -18.835938 7.972656 -19.660156 6.578125 -20.640625 C 5.179688 -21.628906 4.078125 -22.890625 3.265625 -24.421875 C 2.460938 -25.960938 2.0625 -27.851562 2.0625 -30.09375 C 2.0625 -34.144531 3.125 -37.125 5.25 -39.03125 C 7.375 -40.9375 10.460938 -41.890625 14.515625 -41.890625 C 18.441406 -41.890625 21.414062 -40.953125 23.4375 -39.078125 C 25.46875 -37.210938 26.484375 -34.273438 26.484375 -30.265625 L 26.484375 -28.90625 L 18.703125 -28.90625 L 18.703125 -30.265625 C 18.703125 -31.992188 18.328125 -33.25 17.578125 -34.03125 C 16.835938 -34.820312 15.738281 -35.21875 14.28125 -35.21875 C 11.363281 -35.21875 9.90625 -33.707031 9.90625 -30.6875 C 9.90625 -29.582031 10.21875 -28.515625 10.84375 -27.484375 C 11.476562 -26.460938 12.523438 -25.679688 13.984375 -25.140625 L 17.46875 -23.59375 C 19.46875 -22.882812 21.1875 -22.03125 22.625 -21.03125 C 24.0625 -20.03125 25.160156 -18.757812 25.921875 -17.21875 C 26.691406 -15.6875 27.078125 -13.742188 27.078125 -11.390625 C 27.078125 -9.148438 26.632812 -7.125 25.75 -5.3125 C 24.863281 -3.5 23.476562 -2.0625 21.59375 -1 C 19.707031 0.0625 17.289062 0.59375 14.34375 0.59375 Z M 14.34375 0.59375 "/></g></g></g><g fill="#000000" fill-opacity="1"><g transform="translate(324.923251, 263.639069)"><g><path d="M 9.203125 0 L 9.203125 -34.578125 L 0.46875 -34.578125 L 0.46875 -41.296875 L 25.84375 -41.296875 L 25.84375 -34.578125 L 17.046875 -34.578125 L 17.046875 0 Z M 9.203125 0 "/></g></g></g><g fill="#000000" fill-opacity="1"><g transform="translate(346.455149, 263.639069)"><g/></g></g><g fill="#000000" fill-opacity="1"><g transform="translate(359.728257, 263.639069)"><g><path d="M 7.140625 0 L 0 -41.296875 L 7.90625 -41.296875 L 12.09375 -17.40625 L 16.109375 -41.296875 L 22.25 -41.296875 L 26.25 -17.28125 L 30.4375 -41.296875 L 38.34375 -41.296875 L 31.265625 0 L 23.359375 0 L 19.171875 -23.59375 L 14.984375 0 Z M 7.140625 0 "/></g></g></g><g fill="#000000" fill-opacity="1"><g transform="translate(397.601195, 263.639069)"><g><path d="M 15.046875 0.59375 C 10.367188 0.59375 6.984375 -1.085938 4.890625 -4.453125 C 2.804688 -7.816406 1.765625 -13.21875 1.765625 -20.65625 C 1.765625 -28.125 2.804688 -33.53125 4.890625 -36.875 C 6.984375 -40.21875 10.367188 -41.890625 15.046875 -41.890625 C 19.722656 -41.890625 23.101562 -40.21875 25.1875 -36.875 C 27.269531 -33.53125 28.3125 -28.125 28.3125 -20.65625 C 28.3125 -13.21875 27.269531 -7.816406 25.1875 -4.453125 C 23.101562 -1.085938 19.722656 0.59375 15.046875 0.59375 Z M 9.609375 -20.65625 C 9.609375 -16.632812 9.796875 -13.582031 10.171875 -11.5 C 10.546875 -9.414062 11.132812 -8 11.9375 -7.25 C 12.75 -6.507812 13.785156 -6.140625 15.046875 -6.140625 C 16.335938 -6.140625 17.382812 -6.507812 18.1875 -7.25 C 19 -8 19.59375 -9.414062 19.96875 -11.5 C 20.34375 -13.582031 20.53125 -16.632812 20.53125 -20.65625 C 20.53125 -24.707031 20.34375 -27.765625 19.96875 -29.828125 C 19.59375 -31.890625 19 -33.289062 18.1875 -34.03125 C 17.382812 -34.78125 16.335938 -35.15625 15.046875 -35.15625 C 13.785156 -35.15625 12.75 -34.769531 11.9375 -34 C 11.132812 -33.238281 10.546875 -31.816406 10.171875 -29.734375 C 9.796875 -27.648438 9.609375 -24.625 9.609375 -20.65625 Z M 9.609375 -20.65625 "/></g></g></g><g fill="#000000" fill-opacity="1"><g transform="translate(427.687207, 263.639069)"><g><path d="M 2.65625 0 L 2.65625 -41.296875 L 13.625 -41.296875 C 18.1875 -41.296875 21.476562 -40.210938 23.5 -38.046875 C 25.53125 -35.890625 26.546875 -32.550781 26.546875 -28.03125 C 26.546875 -25.195312 26.148438 -22.84375 25.359375 -20.96875 C 24.578125 -19.101562 23.320312 -17.660156 21.59375 -16.640625 C 22.925781 -15.421875 23.910156 -13.804688 24.546875 -11.796875 L 28.5 0 L 20.40625 0 L 16.8125 -10.5 C 16.414062 -11.519531 15.894531 -12.273438 15.25 -12.765625 C 14.601562 -13.265625 13.515625 -13.515625 11.984375 -13.515625 L 10.5 -13.515625 L 10.5 0 Z M 10.5 -20.234375 L 12.984375 -20.234375 C 14.953125 -20.234375 16.40625 -20.800781 17.34375 -21.9375 C 18.289062 -23.082031 18.765625 -24.894531 18.765625 -27.375 C 18.765625 -29.851562 18.289062 -31.671875 17.34375 -32.828125 C 16.40625 -33.992188 14.953125 -34.578125 12.984375 -34.578125 L 10.5 -34.578125 Z M 10.5 -20.234375 "/></g></g></g><g fill="#000000" fill-opacity="1"><g transform="translate(456.475368, 263.639069)"><g><path d="M 19.703125 0 L 12.75 -17.34375 L 10.5 -17.34375 L 10.5 0 L 2.65625 0 L 2.65625 -41.296875 L 10.5 -41.296875 L 10.5 -24.015625 L 12.796875 -24.015625 L 19.703125 -41.296875 L 28.03125 -41.296875 L 19.765625 -20.65625 L 28.03125 0 Z M 19.703125 0 "/></g></g></g><g fill="#000000" fill-opacity="1"><g transform="translate(484.499983, 263.639069)"><g/></g></g><g fill="#000000" fill-opacity="1"><g transform="translate(128.953122, 346.139064)"><g><path d="M 2.65625 0 L 2.65625 -41.296875 L 15.21875 -41.296875 C 19.78125 -41.296875 23.148438 -39.554688 25.328125 -36.078125 C 27.515625 -32.597656 28.609375 -27.457031 28.609375 -20.65625 C 28.609375 -13.882812 27.515625 -8.75 25.328125 -5.25 C 23.148438 -1.75 19.78125 0 15.21875 0 Z M 10.5 -6.71875 L 14.09375 -6.71875 C 16.34375 -6.71875 18.023438 -7.8125 19.140625 -10 C 20.265625 -12.1875 20.828125 -15.738281 20.828125 -20.65625 C 20.828125 -25.601562 20.265625 -29.160156 19.140625 -31.328125 C 18.023438 -33.492188 16.34375 -34.578125 14.09375 -34.578125 L 10.5 -34.578125 Z M 10.5 -6.71875 "/></g></g></g><g fill="#000000" fill-opacity="1"><g transform="translate(159.334072, 346.139064)"><g><path d="M 2.65625 0 L 2.65625 -41.296875 L 10.5 -41.296875 L 10.5 0 Z M 2.65625 0 "/></g></g></g><g fill="#000000" fill-opacity="1"><g transform="translate(172.489318, 346.139064)"><g><path d="M 2.65625 0 L 2.65625 -41.296875 L 25.078125 -41.296875 L 25.078125 -34.578125 L 10.5 -34.578125 L 10.5 -24.015625 L 21.421875 -24.015625 L 21.421875 -17.34375 L 10.5 -17.34375 L 10.5 -6.71875 L 25.078125 -6.71875 L 25.078125 0 Z M 2.65625 0 "/></g></g></g><g fill="#000000" fill-opacity="1"><g transform="translate(199.212758, 346.139064)"><g/></g></g><g fill="#000000" fill-opacity="1"><g transform="translate(214.845673, 346.139064)"><g><path d="M 2.65625 0 L 2.65625 -41.296875 L 10.5 -41.296875 L 10.5 0 Z M 2.65625 0 "/></g></g></g><g fill="#000000" fill-opacity="1"><g transform="translate(228.000919, 346.139064)"><g><path d="M 2.65625 0 L 2.65625 -41.296875 L 10.5 -41.296875 L 20.234375 -17.9375 L 20.234375 -41.296875 L 28.03125 -41.296875 L 28.03125 0 L 20.234375 0 L 10.5 -23.359375 L 10.5 0 Z M 2.65625 0 "/></g></g></g><g fill="#000000" fill-opacity="1"><g transform="translate(258.67684, 346.139064)"><g/></g></g><g fill="#000000" fill-opacity="1"><g transform="translate(274.309754, 346.139064)"><g><path d="M 0 0 L 8.265625 -41.296875 L 18.296875 -41.296875 L 26.546875 0 L 18.578125 0 L 16.9375 -10.390625 L 9.609375 -10.390625 L 7.96875 0 Z M 10.734375 -17.109375 L 15.875 -17.109375 L 13.28125 -33.09375 Z M 10.734375 -17.109375 "/></g></g></g><g fill="#000000" fill-opacity="1"><g transform="translate(300.856224, 346.139064)"><g/></g></g><g fill="#000000" fill-opacity="1"><g transform="translate(316.489138, 346.139064)"><g><path d="M 2.65625 0 L 2.65625 -41.296875 L 25.078125 -41.296875 L 25.078125 -34.578125 L 10.5 -34.578125 L 10.5 -21.0625 L 21.421875 -21.0625 L 21.421875 -14.390625 L 10.5 -14.390625 L 10.5 0 Z M 2.65625 0 "/></g></g></g><g fill="#000000" fill-opacity="1"><g transform="translate(340.793824, 346.139064)"><g><path d="M 15.046875 0.59375 C 10.367188 0.59375 6.984375 -1.085938 4.890625 -4.453125 C 2.804688 -7.816406 1.765625 -13.21875 1.765625 -20.65625 C 1.765625 -28.125 2.804688 -33.53125 4.890625 -36.875 C 6.984375 -40.21875 10.367188 -41.890625 15.046875 -41.890625 C 19.722656 -41.890625 23.101562 -40.21875 25.1875 -36.875 C 27.269531 -33.53125 28.3125 -28.125 28.3125 -20.65625 C 28.3125 -13.21875 27.269531 -7.816406 25.1875 -4.453125 C 23.101562 -1.085938 19.722656 0.59375 15.046875 0.59375 Z M 9.609375 -20.65625 C 9.609375 -16.632812 9.796875 -13.582031 10.171875 -11.5 C 10.546875 -9.414062 11.132812 -8 11.9375 -7.25 C 12.75 -6.507812 13.785156 -6.140625 15.046875 -6.140625 C 16.335938 -6.140625 17.382812 -6.507812 18.1875 -7.25 C 19 -8 19.59375 -9.414062 19.96875 -11.5 C 20.34375 -13.582031 20.53125 -16.632812 20.53125 -20.65625 C 20.53125 -24.707031 20.34375 -27.765625 19.96875 -29.828125 C 19.59375 -31.890625 19 -33.289062 18.1875 -34.03125 C 17.382812 -34.78125 16.335938 -35.15625 15.046875 -35.15625 C 13.785156 -35.15625 12.75 -34.769531 11.9375 -34 C 11.132812 -33.238281 10.546875 -31.816406 10.171875 -29.734375 C 9.796875 -27.648438 9.609375 -24.625 9.609375 -20.65625 Z M 9.609375 -20.65625 "/></g></g></g><g fill="#000000" fill-opacity="1"><g transform="translate(370.879791, 346.139064)"><g><path d="M 2.65625 0 L 2.65625 -41.296875 L 10.5 -41.296875 L 10.5 -6.71875 L 25.078125 -6.71875 L 25.078125 0 Z M 2.65625 0 "/></g></g></g><g fill="#000000" fill-opacity="1"><g transform="translate(397.1313, 346.139064)"><g><path d="M 2.65625 0 L 2.65625 -41.296875 L 15.21875 -41.296875 C 19.78125 -41.296875 23.148438 -39.554688 25.328125 -36.078125 C 27.515625 -32.597656 28.609375 -27.457031 28.609375 -20.65625 C 28.609375 -13.882812 27.515625 -8.75 25.328125 -5.25 C 23.148438 -1.75 19.78125 0 15.21875 0 Z M 10.5 -6.71875 L 14.09375 -6.71875 C 16.34375 -6.71875 18.023438 -7.8125 19.140625 -10 C 20.265625 -12.1875 20.828125 -15.738281 20.828125 -20.65625 C 20.828125 -25.601562 20.265625 -29.160156 19.140625 -31.328125 C 18.023438 -33.492188 16.34375 -34.578125 14.09375 -34.578125 L 10.5 -34.578125 Z M 10.5 -6.71875 "/></g></g></g><g fill="#000000" fill-opacity="1"><g transform="translate(427.51225, 346.139064)"><g><path d="M 2.65625 0 L 2.65625 -41.296875 L 25.078125 -41.296875 L 25.078125 -34.578125 L 10.5 -34.578125 L 10.5 -24.015625 L 21.421875 -24.015625 L 21.421875 -17.34375 L 10.5 -17.34375 L 10.5 -6.71875 L 25.078125 -6.71875 L 25.078125 0 Z M 2.65625 0 "/></g></g></g><g fill="#000000" fill-opacity="1"><g transform="translate(454.235714, 346.139064)"><g><path d="M 2.65625 0 L 2.65625 -41.296875 L 13.625 -41.296875 C 18.1875 -41.296875 21.476562 -40.210938 23.5 -38.046875 C 25.53125 -35.890625 26.546875 -32.550781 26.546875 -28.03125 C 26.546875 -25.195312 26.148438 -22.84375 25.359375 -20.96875 C 24.578125 -19.101562 23.320312 -17.660156 21.59375 -16.640625 C 22.925781 -15.421875 23.910156 -13.804688 24.546875 -11.796875 L 28.5 0 L 20.40625 0 L 16.8125 -10.5 C 16.414062 -11.519531 15.894531 -12.273438 15.25 -12.765625 C 14.601562 -13.265625 13.515625 -13.515625 11.984375 -13.515625 L 10.5 -13.515625 L 10.5 0 Z M 10.5 -20.234375 L 12.984375 -20.234375 C 14.953125 -20.234375 16.40625 -20.800781 17.34375 -21.9375 C 18.289062 -23.082031 18.765625 -24.894531 18.765625 -27.375 C 18.765625 -29.851562 18.289062 -31.671875 17.34375 -32.828125 C 16.40625 -33.992188 14.953125 -34.578125 12.984375 -34.578125 L 10.5 -34.578125 Z M 10.5 -20.234375 "/></g></g></g><path fill="#000000" d="M 243.074219 721.285156 L 243.074219 662.785156 L 219.554688 662.785156 L 219.554688 604.285156 L 191.488281 604.285156 L 191.488281 487.285156 L 39.285156 487.285156 L 39.285156 445.285156 L 572.710938 445.285156 L 572.710938 487.285156 L 420.496094 487.285156 L 420.496094 604.285156 L 392.429688 604.285156 L 392.429688 662.785156 L 368.921875 662.785156 L 368.921875 721.285156 L 243.074219 721.285156 " fill-opacity="1" fill-rule="nonzero"/><g fill="#ffffff" fill-opacity="1"><g transform="translate(39.28418, 478.284836)"><g><path d="M 5.078125 0 L 0 -29.40625 L 5.625 -29.40625 L 8.609375 -12.390625 L 11.46875 -29.40625 L 15.828125 -29.40625 L 18.6875 -12.3125 L 21.671875 -29.40625 L 27.296875 -29.40625 L 22.265625 0 L 16.625 0 L 13.65625 -16.796875 L 10.671875 0 Z M 5.078125 0 "/></g></g></g><g fill="#ffffff" fill-opacity="1"><g transform="translate(65.526695, 478.284836)"><g><path d="M 8.609375 0.421875 C 6.054688 0.421875 4.191406 -0.441406 3.015625 -2.171875 C 1.847656 -3.910156 1.265625 -6.6875 1.265625 -10.5 C 1.265625 -14.332031 1.847656 -17.109375 3.015625 -18.828125 C 4.191406 -20.554688 6.054688 -21.421875 8.609375 -21.421875 C 11.179688 -21.421875 13.046875 -20.554688 14.203125 -18.828125 C 15.367188 -17.109375 15.953125 -14.332031 15.953125 -10.5 C 15.953125 -10.21875 15.953125 -9.929688 15.953125 -9.640625 C 15.953125 -9.347656 15.941406 -9.046875 15.921875 -8.734375 L 6.265625 -8.734375 C 6.347656 -6.722656 6.582031 -5.382812 6.96875 -4.71875 C 7.363281 -4.0625 7.910156 -3.734375 8.609375 -3.734375 C 9.222656 -3.734375 9.710938 -3.941406 10.078125 -4.359375 C 10.441406 -4.785156 10.707031 -5.613281 10.875 -6.84375 L 15.75 -6.84375 C 15.4375 -4.320312 14.691406 -2.476562 13.515625 -1.3125 C 12.347656 -0.15625 10.710938 0.421875 8.609375 0.421875 Z M 6.265625 -12.3125 L 11 -12.3125 C 10.914062 -14.320312 10.675781 -15.65625 10.28125 -16.3125 C 9.894531 -16.96875 9.335938 -17.296875 8.609375 -17.296875 C 7.910156 -17.296875 7.363281 -16.96875 6.96875 -16.3125 C 6.582031 -15.65625 6.347656 -14.320312 6.265625 -12.3125 Z M 6.265625 -12.3125 "/></g></g></g><g fill="#ffffff" fill-opacity="1"><g transform="translate(82.741858, 478.284836)"><g/></g></g><g fill="#ffffff" fill-opacity="1"><g transform="translate(93.86873, 478.284836)"><g><path d="M 9.90625 0.421875 C 9.289062 0.421875 8.722656 0.320312 8.203125 0.125 C 7.691406 -0.0703125 7.238281 -0.335938 6.84375 -0.671875 L 6.84375 10.5 L 1.890625 10.5 L 1.890625 -21 L 5.25 -21 L 5.921875 -19.359375 C 6.398438 -19.953125 6.96875 -20.441406 7.625 -20.828125 C 8.28125 -21.222656 9.039062 -21.421875 9.90625 -21.421875 C 12.175781 -21.421875 13.785156 -20.59375 14.734375 -18.9375 C 15.691406 -17.289062 16.171875 -14.476562 16.171875 -10.5 C 16.171875 -6.519531 15.691406 -3.703125 14.734375 -2.046875 C 13.785156 -0.398438 12.175781 0.421875 9.90625 0.421875 Z M 6.84375 -4.5 C 7.289062 -3.988281 7.820312 -3.734375 8.4375 -3.734375 C 9.113281 -3.734375 9.65625 -3.925781 10.0625 -4.3125 C 10.46875 -4.707031 10.765625 -5.394531 10.953125 -6.375 C 11.148438 -7.363281 11.25 -8.738281 11.25 -10.5 C 11.25 -12.257812 11.148438 -13.628906 10.953125 -14.609375 C 10.765625 -15.597656 10.46875 -16.285156 10.0625 -16.671875 C 9.65625 -17.066406 9.113281 -17.265625 8.4375 -17.265625 C 8.132812 -17.265625 7.847656 -17.203125 7.578125 -17.078125 C 7.316406 -16.953125 7.070312 -16.773438 6.84375 -16.546875 Z M 6.84375 -4.5 "/></g></g></g><g fill="#ffffff" fill-opacity="1"><g transform="translate(111.293836, 478.284836)"><g><path d="M 1.890625 0 L 1.890625 -21 L 5.25 -21 L 5.875 -19.453125 C 6.351562 -20.035156 6.9375 -20.507812 7.625 -20.875 C 8.3125 -21.238281 9.101562 -21.421875 10 -21.421875 C 10.46875 -21.421875 10.878906 -21.382812 11.234375 -21.3125 C 11.585938 -21.238281 11.890625 -21.132812 12.140625 -21 L 12.140625 -17.171875 C 11.972656 -17.234375 11.796875 -17.265625 11.609375 -17.265625 C 11.429688 -17.265625 11.242188 -17.265625 11.046875 -17.265625 C 9.835938 -17.265625 8.867188 -16.929688 8.140625 -16.265625 C 7.421875 -15.609375 6.988281 -14.664062 6.84375 -13.4375 L 6.84375 0 Z M 1.890625 0 "/></g></g></g><g fill="#ffffff" fill-opacity="1"><g transform="translate(123.42836, 478.284836)"><g><path d="M 8.609375 0.421875 C 6.054688 0.421875 4.191406 -0.441406 3.015625 -2.171875 C 1.847656 -3.910156 1.265625 -6.6875 1.265625 -10.5 C 1.265625 -14.332031 1.847656 -17.109375 3.015625 -18.828125 C 4.191406 -20.554688 6.054688 -21.421875 8.609375 -21.421875 C 11.160156 -21.421875 13.019531 -20.554688 14.1875 -18.828125 C 15.363281 -17.109375 15.953125 -14.332031 15.953125 -10.5 C 15.953125 -6.6875 15.363281 -3.910156 14.1875 -2.171875 C 13.019531 -0.441406 11.160156 0.421875 8.609375 0.421875 Z M 6.21875 -10.5 C 6.21875 -8.675781 6.300781 -7.273438 6.46875 -6.296875 C 6.632812 -5.316406 6.898438 -4.644531 7.265625 -4.28125 C 7.628906 -3.914062 8.078125 -3.734375 8.609375 -3.734375 C 9.171875 -3.734375 9.625 -3.914062 9.96875 -4.28125 C 10.320312 -4.644531 10.585938 -5.316406 10.765625 -6.296875 C 10.953125 -7.273438 11.046875 -8.675781 11.046875 -10.5 C 11.046875 -12.34375 10.953125 -13.75 10.765625 -14.71875 C 10.585938 -15.6875 10.320312 -16.351562 9.96875 -16.71875 C 9.625 -17.082031 9.171875 -17.265625 8.609375 -17.265625 C 8.078125 -17.265625 7.628906 -17.082031 7.265625 -16.71875 C 6.898438 -16.351562 6.632812 -15.6875 6.46875 -14.71875 C 6.300781 -13.75 6.21875 -12.34375 6.21875 -10.5 Z M 6.21875 -10.5 "/></g></g></g><g fill="#ffffff" fill-opacity="1"><g transform="translate(140.643524, 478.284836)"><g><path d="M 7.515625 0.421875 C 5.242188 0.421875 3.632812 -0.398438 2.6875 -2.046875 C 1.738281 -3.703125 1.265625 -6.519531 1.265625 -10.5 C 1.265625 -14.476562 1.738281 -17.289062 2.6875 -18.9375 C 3.632812 -20.59375 5.242188 -21.421875 7.515625 -21.421875 C 8.160156 -21.421875 8.738281 -21.316406 9.25 -21.109375 C 9.769531 -20.898438 10.226562 -20.625 10.625 -20.28125 L 10.625 -31.5 L 15.546875 -31.5 L 15.546875 0 L 12.1875 0 L 11.515625 -1.6875 C 11.066406 -1.0625 10.507812 -0.550781 9.84375 -0.15625 C 9.1875 0.226562 8.410156 0.421875 7.515625 0.421875 Z M 6.21875 -10.5 C 6.21875 -8.738281 6.3125 -7.363281 6.5 -6.375 C 6.695312 -5.394531 7 -4.707031 7.40625 -4.3125 C 7.8125 -3.925781 8.335938 -3.734375 8.984375 -3.734375 C 9.316406 -3.734375 9.625 -3.8125 9.90625 -3.96875 C 10.1875 -4.125 10.425781 -4.3125 10.625 -4.53125 L 10.625 -16.5 C 10.175781 -17.007812 9.628906 -17.265625 8.984375 -17.265625 C 8.335938 -17.265625 7.8125 -17.066406 7.40625 -16.671875 C 7 -16.285156 6.695312 -15.597656 6.5 -14.609375 C 6.3125 -13.628906 6.21875 -12.257812 6.21875 -10.5 Z M 6.21875 -10.5 "/></g></g></g><g fill="#ffffff" fill-opacity="1"><g transform="translate(158.068629, 478.284836)"><g><path d="M 7.09375 0.421875 C 5.300781 0.421875 3.984375 -0.0390625 3.140625 -0.96875 C 2.304688 -1.894531 1.890625 -3.296875 1.890625 -5.171875 L 1.890625 -21 L 6.84375 -21 L 6.84375 -5.796875 C 6.84375 -5.097656 6.984375 -4.578125 7.265625 -4.234375 C 7.546875 -3.898438 8.007812 -3.734375 8.65625 -3.734375 C 9.070312 -3.734375 9.46875 -3.816406 9.84375 -3.984375 C 10.226562 -4.148438 10.5625 -4.363281 10.84375 -4.625 L 10.84375 -21 L 15.75 -21 L 15.75 0 L 12.390625 0 L 11.71875 -1.6875 C 11.21875 -1.09375 10.582031 -0.59375 9.8125 -0.1875 C 9.039062 0.21875 8.132812 0.421875 7.09375 0.421875 Z M 7.09375 0.421875 "/></g></g></g><g fill="#ffffff" fill-opacity="1"><g transform="translate(175.703665, 478.284836)"><g><path d="M 8.484375 0.421875 C 5.992188 0.421875 4.164062 -0.441406 3 -2.171875 C 1.84375 -3.910156 1.265625 -6.6875 1.265625 -10.5 C 1.265625 -14.332031 1.84375 -17.109375 3 -18.828125 C 4.164062 -20.554688 5.992188 -21.421875 8.484375 -21.421875 C 10.640625 -21.421875 12.289062 -20.78125 13.4375 -19.5 C 14.582031 -18.226562 15.285156 -16.191406 15.546875 -13.390625 L 10.625 -13.390625 C 10.488281 -14.960938 10.242188 -16 9.890625 -16.5 C 9.535156 -17.007812 9.050781 -17.265625 8.4375 -17.265625 C 7.9375 -17.265625 7.515625 -17.082031 7.171875 -16.71875 C 6.835938 -16.351562 6.59375 -15.6875 6.4375 -14.71875 C 6.289062 -13.75 6.21875 -12.34375 6.21875 -10.5 C 6.21875 -8.675781 6.289062 -7.273438 6.4375 -6.296875 C 6.59375 -5.316406 6.835938 -4.644531 7.171875 -4.28125 C 7.515625 -3.914062 7.9375 -3.734375 8.4375 -3.734375 C 9.050781 -3.734375 9.535156 -3.992188 9.890625 -4.515625 C 10.242188 -5.035156 10.488281 -6.066406 10.625 -7.609375 L 15.546875 -7.609375 C 15.285156 -4.804688 14.582031 -2.765625 13.4375 -1.484375 C 12.289062 -0.210938 10.640625 0.421875 8.484375 0.421875 Z M 8.484375 0.421875 "/></g></g></g><g fill="#ffffff" fill-opacity="1"><g transform="translate(192.498944, 478.284836)"><g><path d="M 8.609375 0.421875 C 6.054688 0.421875 4.191406 -0.441406 3.015625 -2.171875 C 1.847656 -3.910156 1.265625 -6.6875 1.265625 -10.5 C 1.265625 -14.332031 1.847656 -17.109375 3.015625 -18.828125 C 4.191406 -20.554688 6.054688 -21.421875 8.609375 -21.421875 C 11.179688 -21.421875 13.046875 -20.554688 14.203125 -18.828125 C 15.367188 -17.109375 15.953125 -14.332031 15.953125 -10.5 C 15.953125 -10.21875 15.953125 -9.929688 15.953125 -9.640625 C 15.953125 -9.347656 15.941406 -9.046875 15.921875 -8.734375 L 6.265625 -8.734375 C 6.347656 -6.722656 6.582031 -5.382812 6.96875 -4.71875 C 7.363281 -4.0625 7.910156 -3.734375 8.609375 -3.734375 C 9.222656 -3.734375 9.710938 -3.941406 10.078125 -4.359375 C 10.441406 -4.785156 10.707031 -5.613281 10.875 -6.84375 L 15.75 -6.84375 C 15.4375 -4.320312 14.691406 -2.476562 13.515625 -1.3125 C 12.347656 -0.15625 10.710938 0.421875 8.609375 0.421875 Z M 6.265625 -12.3125 L 11 -12.3125 C 10.914062 -14.320312 10.675781 -15.65625 10.28125 -16.3125 C 9.894531 -16.96875 9.335938 -17.296875 8.609375 -17.296875 C 7.910156 -17.296875 7.363281 -16.96875 6.96875 -16.3125 C 6.582031 -15.65625 6.347656 -14.320312 6.265625 -12.3125 Z M 6.265625 -12.3125 "/></g></g></g><g fill="#ffffff" fill-opacity="1"><g transform="translate(209.714107, 478.284836)"><g/></g></g><g fill="#ffffff" fill-opacity="1"><g transform="translate(220.84098, 478.284836)"><g><path d="M 8.859375 0.421875 C 6.035156 0.421875 3.882812 -0.285156 2.40625 -1.703125 C 0.9375 -3.117188 0.203125 -5.039062 0.203125 -7.46875 C 0.203125 -9.09375 0.5625 -10.5625 1.28125 -11.875 C 2 -13.195312 3.113281 -14.472656 4.625 -15.703125 L 7.515625 -18.0625 L 7.34375 -18.3125 C 6.757812 -19.289062 6.304688 -20.25 5.984375 -21.1875 C 5.660156 -22.125 5.5 -23.054688 5.5 -23.984375 C 5.5 -25.804688 6.066406 -27.234375 7.203125 -28.265625 C 8.335938 -29.296875 9.816406 -29.8125 11.640625 -29.8125 L 11.671875 -29.8125 C 13.742188 -29.8125 15.273438 -29.328125 16.265625 -28.359375 C 17.265625 -27.398438 17.765625 -26.09375 17.765625 -24.4375 C 17.765625 -23.175781 17.5 -22.09375 16.96875 -21.1875 C 16.4375 -20.28125 15.679688 -19.421875 14.703125 -18.609375 L 13.484375 -17.640625 L 17.21875 -11.296875 C 17.71875 -13.140625 17.96875 -15.15625 17.96875 -17.34375 L 21.96875 -17.34375 C 21.96875 -15.351562 21.785156 -13.476562 21.421875 -11.71875 C 21.054688 -9.957031 20.523438 -8.347656 19.828125 -6.890625 L 23.890625 0 L 18.234375 0 L 16.71875 -2.5625 C 15.675781 -1.613281 14.503906 -0.878906 13.203125 -0.359375 C 11.898438 0.160156 10.46875 0.421875 8.90625 0.421875 Z M 5 -7.9375 C 5 -6.507812 5.375 -5.421875 6.125 -4.671875 C 6.882812 -3.929688 7.867188 -3.5625 9.078125 -3.5625 C 10.222656 -3.5625 11.25 -3.789062 12.15625 -4.25 C 13.070312 -4.71875 13.878906 -5.34375 14.578125 -6.125 L 9.625 -14.484375 L 7.1875 -12.46875 C 6.457031 -11.832031 5.910156 -11.148438 5.546875 -10.421875 C 5.179688 -9.691406 5 -8.863281 5 -7.9375 Z M 10.25 -24.03125 C 10.25 -23.582031 10.351562 -23.125 10.5625 -22.65625 C 10.769531 -22.195312 11.039062 -21.710938 11.375 -21.203125 L 12.390625 -22.046875 C 12.785156 -22.378906 13.078125 -22.722656 13.265625 -23.078125 C 13.460938 -23.429688 13.5625 -23.832031 13.5625 -24.28125 C 13.5625 -24.78125 13.398438 -25.160156 13.078125 -25.421875 C 12.753906 -25.691406 12.359375 -25.828125 11.890625 -25.828125 C 11.410156 -25.828125 11.015625 -25.671875 10.703125 -25.359375 C 10.398438 -25.054688 10.25 -24.613281 10.25 -24.03125 Z M 10.25 -24.03125 "/></g></g></g><g fill="#ffffff" fill-opacity="1"><g transform="translate(244.648283, 478.284836)"><g/></g></g><g fill="#ffffff" fill-opacity="1"><g transform="translate(255.775167, 478.284836)"><g><path d="M 10.84375 -15.25 C 10.84375 -16.59375 10.222656 -17.265625 8.984375 -17.265625 C 8.566406 -17.265625 8.179688 -17.179688 7.828125 -17.015625 C 7.484375 -16.847656 7.15625 -16.648438 6.84375 -16.421875 L 6.84375 0 L 1.890625 0 L 1.890625 -31.5 L 6.84375 -31.5 L 6.84375 -20.203125 C 7.320312 -20.566406 7.867188 -20.859375 8.484375 -21.078125 C 9.097656 -21.304688 9.785156 -21.421875 10.546875 -21.421875 C 12.359375 -21.421875 13.675781 -20.957031 14.5 -20.03125 C 15.332031 -19.101562 15.75 -17.71875 15.75 -15.875 L 15.75 0 L 10.84375 0 Z M 10.84375 -15.25 "/></g></g></g><g fill="#ffffff" fill-opacity="1"><g transform="translate(273.410191, 478.284836)"><g><path d="M 8.609375 0.421875 C 6.054688 0.421875 4.191406 -0.441406 3.015625 -2.171875 C 1.847656 -3.910156 1.265625 -6.6875 1.265625 -10.5 C 1.265625 -14.332031 1.847656 -17.109375 3.015625 -18.828125 C 4.191406 -20.554688 6.054688 -21.421875 8.609375 -21.421875 C 11.179688 -21.421875 13.046875 -20.554688 14.203125 -18.828125 C 15.367188 -17.109375 15.953125 -14.332031 15.953125 -10.5 C 15.953125 -10.21875 15.953125 -9.929688 15.953125 -9.640625 C 15.953125 -9.347656 15.941406 -9.046875 15.921875 -8.734375 L 6.265625 -8.734375 C 6.347656 -6.722656 6.582031 -5.382812 6.96875 -4.71875 C 7.363281 -4.0625 7.910156 -3.734375 8.609375 -3.734375 C 9.222656 -3.734375 9.710938 -3.941406 10.078125 -4.359375 C 10.441406 -4.785156 10.707031 -5.613281 10.875 -6.84375 L 15.75 -6.84375 C 15.4375 -4.320312 14.691406 -2.476562 13.515625 -1.3125 C 12.347656 -0.15625 10.710938 0.421875 8.609375 0.421875 Z M 6.265625 -12.3125 L 11 -12.3125 C 10.914062 -14.320312 10.675781 -15.65625 10.28125 -16.3125 C 9.894531 -16.96875 9.335938 -17.296875 8.609375 -17.296875 C 7.910156 -17.296875 7.363281 -16.96875 6.96875 -16.3125 C 6.582031 -15.65625 6.347656 -14.320312 6.265625 -12.3125 Z M 6.265625 -12.3125 "/></g></g></g><g fill="#ffffff" fill-opacity="1"><g transform="translate(290.625355, 478.284836)"><g><path d="M 1.890625 0 L 1.890625 -31.5 L 6.84375 -31.5 L 6.84375 0 Z M 1.890625 0 "/></g></g></g><g fill="#ffffff" fill-opacity="1"><g transform="translate(299.35889, 478.284836)"><g><path d="M 9.90625 0.421875 C 9.289062 0.421875 8.722656 0.320312 8.203125 0.125 C 7.691406 -0.0703125 7.238281 -0.335938 6.84375 -0.671875 L 6.84375 10.5 L 1.890625 10.5 L 1.890625 -21 L 5.25 -21 L 5.921875 -19.359375 C 6.398438 -19.953125 6.96875 -20.441406 7.625 -20.828125 C 8.28125 -21.222656 9.039062 -21.421875 9.90625 -21.421875 C 12.175781 -21.421875 13.785156 -20.59375 14.734375 -18.9375 C 15.691406 -17.289062 16.171875 -14.476562 16.171875 -10.5 C 16.171875 -6.519531 15.691406 -3.703125 14.734375 -2.046875 C 13.785156 -0.398438 12.175781 0.421875 9.90625 0.421875 Z M 6.84375 -4.5 C 7.289062 -3.988281 7.820312 -3.734375 8.4375 -3.734375 C 9.113281 -3.734375 9.65625 -3.925781 10.0625 -4.3125 C 10.46875 -4.707031 10.765625 -5.394531 10.953125 -6.375 C 11.148438 -7.363281 11.25 -8.738281 11.25 -10.5 C 11.25 -12.257812 11.148438 -13.628906 10.953125 -14.609375 C 10.765625 -15.597656 10.46875 -16.285156 10.0625 -16.671875 C 9.65625 -17.066406 9.113281 -17.265625 8.4375 -17.265625 C 8.132812 -17.265625 7.847656 -17.203125 7.578125 -17.078125 C 7.316406 -16.953125 7.070312 -16.773438 6.84375 -16.546875 Z M 6.84375 -4.5 "/></g></g></g><g fill="#ffffff" fill-opacity="1"><g transform="translate(316.784007, 478.284836)"><g/></g></g><g fill="#ffffff" fill-opacity="1"><g transform="translate(327.91089, 478.284836)"><g><path d="M 8.359375 0.421875 C 5.953125 0.421875 4.128906 -0.164062 2.890625 -1.34375 C 1.660156 -2.519531 1.046875 -4.160156 1.046875 -6.265625 L 1.046875 -6.59375 L 6 -6.59375 L 6 -6.265625 C 6 -4.578125 6.757812 -3.734375 8.28125 -3.734375 C 8.976562 -3.734375 9.507812 -3.921875 9.875 -4.296875 C 10.238281 -4.679688 10.421875 -5.195312 10.421875 -5.84375 C 10.421875 -6.59375 10.207031 -7.175781 9.78125 -7.59375 C 9.363281 -8.019531 8.773438 -8.34375 8.015625 -8.5625 L 7.265625 -8.78125 C 5.273438 -9.34375 3.8125 -10.164062 2.875 -11.25 C 1.9375 -12.34375 1.46875 -13.726562 1.46875 -15.40625 C 1.46875 -17.207031 1.984375 -18.660156 3.015625 -19.765625 C 4.054688 -20.867188 5.78125 -21.421875 8.1875 -21.421875 C 10.59375 -21.421875 12.3125 -20.898438 13.34375 -19.859375 C 14.382812 -18.828125 14.90625 -17.234375 14.90625 -15.078125 L 14.90625 -14.78125 L 10.296875 -14.78125 L 10.296875 -15.078125 C 10.296875 -16.535156 9.632812 -17.265625 8.3125 -17.265625 C 7.050781 -17.265625 6.421875 -16.59375 6.421875 -15.25 C 6.421875 -14.007812 7.148438 -13.164062 8.609375 -12.71875 L 9.359375 -12.46875 C 11.660156 -11.851562 13.226562 -11.003906 14.0625 -9.921875 C 14.90625 -8.847656 15.328125 -7.445312 15.328125 -5.71875 C 15.328125 -3.8125 14.765625 -2.3125 13.640625 -1.21875 C 12.523438 -0.125 10.765625 0.421875 8.359375 0.421875 Z M 8.359375 0.421875 "/></g></g></g><g fill="#ffffff" fill-opacity="1"><g transform="translate(344.286286, 478.284836)"><g><path d="M 8.609375 0.421875 C 6.054688 0.421875 4.191406 -0.441406 3.015625 -2.171875 C 1.847656 -3.910156 1.265625 -6.6875 1.265625 -10.5 C 1.265625 -14.332031 1.847656 -17.109375 3.015625 -18.828125 C 4.191406 -20.554688 6.054688 -21.421875 8.609375 -21.421875 C 11.179688 -21.421875 13.046875 -20.554688 14.203125 -18.828125 C 15.367188 -17.109375 15.953125 -14.332031 15.953125 -10.5 C 15.953125 -10.21875 15.953125 -9.929688 15.953125 -9.640625 C 15.953125 -9.347656 15.941406 -9.046875 15.921875 -8.734375 L 6.265625 -8.734375 C 6.347656 -6.722656 6.582031 -5.382812 6.96875 -4.71875 C 7.363281 -4.0625 7.910156 -3.734375 8.609375 -3.734375 C 9.222656 -3.734375 9.710938 -3.941406 10.078125 -4.359375 C 10.441406 -4.785156 10.707031 -5.613281 10.875 -6.84375 L 15.75 -6.84375 C 15.4375 -4.320312 14.691406 -2.476562 13.515625 -1.3125 C 12.347656 -0.15625 10.710938 0.421875 8.609375 0.421875 Z M 6.265625 -12.3125 L 11 -12.3125 C 10.914062 -14.320312 10.675781 -15.65625 10.28125 -16.3125 C 9.894531 -16.96875 9.335938 -17.296875 8.609375 -17.296875 C 7.910156 -17.296875 7.363281 -16.96875 6.96875 -16.3125 C 6.582031 -15.65625 6.347656 -14.320312 6.265625 -12.3125 Z M 6.265625 -12.3125 "/></g></g></g><g fill="#ffffff" fill-opacity="1"><g transform="translate(361.501449, 478.284836)"><g><path d="M 1.890625 0 L 1.890625 -31.5 L 6.84375 -31.5 L 6.84375 0 Z M 1.890625 0 "/></g></g></g><g fill="#ffffff" fill-opacity="1"><g transform="translate(370.234985, 478.284836)"><g><path d="M 1.890625 0 L 1.890625 -31.5 L 6.84375 -31.5 L 6.84375 0 Z M 1.890625 0 "/></g></g></g><g fill="#ffffff" fill-opacity="1"><g transform="translate(378.96852, 478.284836)"><g/></g></g><g fill="#ffffff" fill-opacity="1"><g transform="translate(390.095404, 478.284836)"><g><path d="M 2.09375 10.5 L 2.09375 6.34375 L 4.625 6.34375 C 4.925781 6.34375 5.207031 6.242188 5.46875 6.046875 C 5.738281 5.847656 5.90625 5.597656 5.96875 5.296875 L 6.84375 0 L 3.734375 0 L 0.421875 -21 L 5.375 -21 L 7.8125 -4.078125 L 10.203125 -21 L 15.125 -21 L 10.703125 6.84375 C 10.515625 8.019531 10.003906 8.921875 9.171875 9.546875 C 8.347656 10.179688 7.320312 10.5 6.09375 10.5 Z M 2.09375 10.5 "/></g></g></g><g fill="#ffffff" fill-opacity="1"><g transform="translate(405.295103, 478.284836)"><g><path d="M 8.609375 0.421875 C 6.054688 0.421875 4.191406 -0.441406 3.015625 -2.171875 C 1.847656 -3.910156 1.265625 -6.6875 1.265625 -10.5 C 1.265625 -14.332031 1.847656 -17.109375 3.015625 -18.828125 C 4.191406 -20.554688 6.054688 -21.421875 8.609375 -21.421875 C 11.160156 -21.421875 13.019531 -20.554688 14.1875 -18.828125 C 15.363281 -17.109375 15.953125 -14.332031 15.953125 -10.5 C 15.953125 -6.6875 15.363281 -3.910156 14.1875 -2.171875 C 13.019531 -0.441406 11.160156 0.421875 8.609375 0.421875 Z M 6.21875 -10.5 C 6.21875 -8.675781 6.300781 -7.273438 6.46875 -6.296875 C 6.632812 -5.316406 6.898438 -4.644531 7.265625 -4.28125 C 7.628906 -3.914062 8.078125 -3.734375 8.609375 -3.734375 C 9.171875 -3.734375 9.625 -3.914062 9.96875 -4.28125 C 10.320312 -4.644531 10.585938 -5.316406 10.765625 -6.296875 C 10.953125 -7.273438 11.046875 -8.675781 11.046875 -10.5 C 11.046875 -12.34375 10.953125 -13.75 10.765625 -14.71875 C 10.585938 -15.6875 10.320312 -16.351562 9.96875 -16.71875 C 9.625 -17.082031 9.171875 -17.265625 8.609375 -17.265625 C 8.078125 -17.265625 7.628906 -17.082031 7.265625 -16.71875 C 6.898438 -16.351562 6.632812 -15.6875 6.46875 -14.71875 C 6.300781 -13.75 6.21875 -12.34375 6.21875 -10.5 Z M 6.21875 -10.5 "/></g></g></g><g fill="#ffffff" fill-opacity="1"><g transform="translate(422.510266, 478.284836)"><g><path d="M 7.09375 0.421875 C 5.300781 0.421875 3.984375 -0.0390625 3.140625 -0.96875 C 2.304688 -1.894531 1.890625 -3.296875 1.890625 -5.171875 L 1.890625 -21 L 6.84375 -21 L 6.84375 -5.796875 C 6.84375 -5.097656 6.984375 -4.578125 7.265625 -4.234375 C 7.546875 -3.898438 8.007812 -3.734375 8.65625 -3.734375 C 9.070312 -3.734375 9.46875 -3.816406 9.84375 -3.984375 C 10.226562 -4.148438 10.5625 -4.363281 10.84375 -4.625 L 10.84375 -21 L 15.75 -21 L 15.75 0 L 12.390625 0 L 11.71875 -1.6875 C 11.21875 -1.09375 10.582031 -0.59375 9.8125 -0.1875 C 9.039062 0.21875 8.132812 0.421875 7.09375 0.421875 Z M 7.09375 0.421875 "/></g></g></g><g fill="#ffffff" fill-opacity="1"><g transform="translate(440.145336, 478.284836)"><g><path d="M 1.890625 0 L 1.890625 -21 L 5.25 -21 L 5.875 -19.453125 C 6.351562 -20.035156 6.9375 -20.507812 7.625 -20.875 C 8.3125 -21.238281 9.101562 -21.421875 10 -21.421875 C 10.46875 -21.421875 10.878906 -21.382812 11.234375 -21.3125 C 11.585938 -21.238281 11.890625 -21.132812 12.140625 -21 L 12.140625 -17.171875 C 11.972656 -17.234375 11.796875 -17.265625 11.609375 -17.265625 C 11.429688 -17.265625 11.242188 -17.265625 11.046875 -17.265625 C 9.835938 -17.265625 8.867188 -16.929688 8.140625 -16.265625 C 7.421875 -15.609375 6.988281 -14.664062 6.84375 -13.4375 L 6.84375 0 Z M 1.890625 0 "/></g></g></g><g fill="#ffffff" fill-opacity="1"><g transform="translate(450.390178, 478.284836)"><g/></g></g><g fill="#ffffff" fill-opacity="1"><g transform="translate(461.517039, 478.284836)"><g><path d="M 7.515625 0.421875 C 5.242188 0.421875 3.632812 -0.398438 2.6875 -2.046875 C 1.738281 -3.703125 1.265625 -6.519531 1.265625 -10.5 C 1.265625 -14.476562 1.738281 -17.289062 2.6875 -18.9375 C 3.632812 -20.59375 5.242188 -21.421875 7.515625 -21.421875 C 8.160156 -21.421875 8.738281 -21.316406 9.25 -21.109375 C 9.769531 -20.898438 10.226562 -20.625 10.625 -20.28125 L 10.625 -31.5 L 15.546875 -31.5 L 15.546875 0 L 12.1875 0 L 11.515625 -1.6875 C 11.066406 -1.0625 10.507812 -0.550781 9.84375 -0.15625 C 9.1875 0.226562 8.410156 0.421875 7.515625 0.421875 Z M 6.21875 -10.5 C 6.21875 -8.738281 6.3125 -7.363281 6.5 -6.375 C 6.695312 -5.394531 7 -4.707031 7.40625 -4.3125 C 7.8125 -3.925781 8.335938 -3.734375 8.984375 -3.734375 C 9.316406 -3.734375 9.625 -3.8125 9.90625 -3.96875 C 10.1875 -4.125 10.425781 -4.3125 10.625 -4.53125 L 10.625 -16.5 C 10.175781 -17.007812 9.628906 -17.265625 8.984375 -17.265625 C 8.335938 -17.265625 7.8125 -17.066406 7.40625 -16.671875 C 7 -16.285156 6.695312 -15.597656 6.5 -14.609375 C 6.3125 -13.628906 6.21875 -12.257812 6.21875 -10.5 Z M 6.21875 -10.5 "/></g></g></g><g fill="#ffffff" fill-opacity="1"><g transform="translate(478.942132, 478.284836)"><g><path d="M 8.609375 0.421875 C 6.054688 0.421875 4.191406 -0.441406 3.015625 -2.171875 C 1.847656 -3.910156 1.265625 -6.6875 1.265625 -10.5 C 1.265625 -14.332031 1.847656 -17.109375 3.015625 -18.828125 C 4.191406 -20.554688 6.054688 -21.421875 8.609375 -21.421875 C 11.179688 -21.421875 13.046875 -20.554688 14.203125 -18.828125 C 15.367188 -17.109375 15.953125 -14.332031 15.953125 -10.5 C 15.953125 -10.21875 15.953125 -9.929688 15.953125 -9.640625 C 15.953125 -9.347656 15.941406 -9.046875 15.921875 -8.734375 L 6.265625 -8.734375 C 6.347656 -6.722656 6.582031 -5.382812 6.96875 -4.71875 C 7.363281 -4.0625 7.910156 -3.734375 8.609375 -3.734375 C 9.222656 -3.734375 9.710938 -3.941406 10.078125 -4.359375 C 10.441406 -4.785156 10.707031 -5.613281 10.875 -6.84375 L 15.75 -6.84375 C 15.4375 -4.320312 14.691406 -2.476562 13.515625 -1.3125 C 12.347656 -0.15625 10.710938 0.421875 8.609375 0.421875 Z M 6.265625 -12.3125 L 11 -12.3125 C 10.914062 -14.320312 10.675781 -15.65625 10.28125 -16.3125 C 9.894531 -16.96875 9.335938 -17.296875 8.609375 -17.296875 C 7.910156 -17.296875 7.363281 -16.96875 6.96875 -16.3125 C 6.582031 -15.65625 6.347656 -14.320312 6.265625 -12.3125 Z M 6.265625 -12.3125 "/></g></g></g><g fill="#ffffff" fill-opacity="1"><g transform="translate(496.157295, 478.284836)"><g><path d="M 8.359375 0.421875 C 5.953125 0.421875 4.128906 -0.164062 2.890625 -1.34375 C 1.660156 -2.519531 1.046875 -4.160156 1.046875 -6.265625 L 1.046875 -6.59375 L 6 -6.59375 L 6 -6.265625 C 6 -4.578125 6.757812 -3.734375 8.28125 -3.734375 C 8.976562 -3.734375 9.507812 -3.921875 9.875 -4.296875 C 10.238281 -4.679688 10.421875 -5.195312 10.421875 -5.84375 C 10.421875 -6.59375 10.207031 -7.175781 9.78125 -7.59375 C 9.363281 -8.019531 8.773438 -8.34375 8.015625 -8.5625 L 7.265625 -8.78125 C 5.273438 -9.34375 3.8125 -10.164062 2.875 -11.25 C 1.9375 -12.34375 1.46875 -13.726562 1.46875 -15.40625 C 1.46875 -17.207031 1.984375 -18.660156 3.015625 -19.765625 C 4.054688 -20.867188 5.78125 -21.421875 8.1875 -21.421875 C 10.59375 -21.421875 12.3125 -20.898438 13.34375 -19.859375 C 14.382812 -18.828125 14.90625 -17.234375 14.90625 -15.078125 L 14.90625 -14.78125 L 10.296875 -14.78125 L 10.296875 -15.078125 C 10.296875 -16.535156 9.632812 -17.265625 8.3125 -17.265625 C 7.050781 -17.265625 6.421875 -16.59375 6.421875 -15.25 C 6.421875 -14.007812 7.148438 -13.164062 8.609375 -12.71875 L 9.359375 -12.46875 C 11.660156 -11.851562 13.226562 -11.003906 14.0625 -9.921875 C 14.90625 -8.847656 15.328125 -7.445312 15.328125 -5.71875 C 15.328125 -3.8125 14.765625 -2.3125 13.640625 -1.21875 C 12.523438 -0.125 10.765625 0.421875 8.359375 0.421875 Z M 8.359375 0.421875 "/></g></g></g><g fill="#ffffff" fill-opacity="1"><g transform="translate(512.532691, 478.284836)"><g><path d="M 1.890625 0 L 1.890625 -21 L 6.84375 -21 L 6.84375 0 Z M 1.71875 -26.25 L 1.71875 -31.5 L 6.96875 -31.5 L 6.96875 -26.25 Z M 1.71875 -26.25 "/></g></g></g><g fill="#ffffff" fill-opacity="1"><g transform="translate(521.266272, 478.284836)"><g><path d="M 8.609375 10.921875 C 6.484375 10.921875 4.796875 10.398438 3.546875 9.359375 C 2.304688 8.328125 1.6875 6.75 1.6875 4.625 L 1.6875 2.640625 L 6.640625 2.640625 L 6.640625 4.625 C 6.640625 6.050781 7.296875 6.765625 8.609375 6.765625 C 9.953125 6.765625 10.625 6.050781 10.625 4.625 L 10.625 -0.71875 C 10.226562 -0.375 9.769531 -0.0976562 9.25 0.109375 C 8.738281 0.316406 8.160156 0.421875 7.515625 0.421875 C 5.242188 0.421875 3.632812 -0.398438 2.6875 -2.046875 C 1.738281 -3.703125 1.265625 -6.519531 1.265625 -10.5 C 1.265625 -14.476562 1.738281 -17.289062 2.6875 -18.9375 C 3.632812 -20.59375 5.242188 -21.421875 7.515625 -21.421875 C 8.410156 -21.421875 9.1875 -21.222656 9.84375 -20.828125 C 10.507812 -20.441406 11.066406 -19.9375 11.515625 -19.3125 L 12.1875 -21 L 15.546875 -21 L 15.546875 4.953125 C 15.546875 6.910156 14.914062 8.394531 13.65625 9.40625 C 12.394531 10.414062 10.710938 10.921875 8.609375 10.921875 Z M 6.21875 -10.5 C 6.21875 -8.738281 6.3125 -7.363281 6.5 -6.375 C 6.695312 -5.394531 7 -4.707031 7.40625 -4.3125 C 7.8125 -3.925781 8.335938 -3.734375 8.984375 -3.734375 C 9.316406 -3.734375 9.625 -3.8125 9.90625 -3.96875 C 10.1875 -4.125 10.425781 -4.3125 10.625 -4.53125 L 10.625 -16.5 C 10.175781 -17.007812 9.628906 -17.265625 8.984375 -17.265625 C 8.335938 -17.265625 7.8125 -17.066406 7.40625 -16.671875 C 7 -16.285156 6.695312 -15.597656 6.5 -14.609375 C 6.3125 -13.628906 6.21875 -12.257812 6.21875 -10.5 Z M 6.21875 -10.5 "/></g></g></g><g fill="#ffffff" fill-opacity="1"><g transform="translate(538.691366, 478.284836)"><g><path d="M 10.84375 -15.25 C 10.84375 -16.59375 10.222656 -17.265625 8.984375 -17.265625 C 8.566406 -17.265625 8.179688 -17.179688 7.828125 -17.015625 C 7.484375 -16.847656 7.15625 -16.648438 6.84375 -16.421875 L 6.84375 0 L 1.890625 0 L 1.890625 -21 L 5.25 -21 L 5.921875 -19.3125 C 6.453125 -19.90625 7.09375 -20.40625 7.84375 -20.8125 C 8.601562 -21.21875 9.503906 -21.421875 10.546875 -21.421875 C 12.359375 -21.421875 13.675781 -20.957031 14.5 -20.03125 C 15.332031 -19.101562 15.75 -17.71875 15.75 -15.875 L 15.75 0 L 10.84375 0 Z M 10.84375 -15.25 "/></g></g></g><g fill="#ffffff" fill-opacity="1"><g transform="translate(556.32639, 478.284836)"><g><path d="M 8.359375 0.421875 C 5.953125 0.421875 4.128906 -0.164062 2.890625 -1.34375 C 1.660156 -2.519531 1.046875 -4.160156 1.046875 -6.265625 L 1.046875 -6.59375 L 6 -6.59375 L 6 -6.265625 C 6 -4.578125 6.757812 -3.734375 8.28125 -3.734375 C 8.976562 -3.734375 9.507812 -3.921875 9.875 -4.296875 C 10.238281 -4.679688 10.421875 -5.195312 10.421875 -5.84375 C 10.421875 -6.59375 10.207031 -7.175781 9.78125 -7.59375 C 9.363281 -8.019531 8.773438 -8.34375 8.015625 -8.5625 L 7.265625 -8.78125 C 5.273438 -9.34375 3.8125 -10.164062 2.875 -11.25 C 1.9375 -12.34375 1.46875 -13.726562 1.46875 -15.40625 C 1.46875 -17.207031 1.984375 -18.660156 3.015625 -19.765625 C 4.054688 -20.867188 5.78125 -21.421875 8.1875 -21.421875 C 10.59375 -21.421875 12.3125 -20.898438 13.34375 -19.859375 C 14.382812 -18.828125 14.90625 -17.234375 14.90625 -15.078125 L 14.90625 -14.78125 L 10.296875 -14.78125 L 10.296875 -15.078125 C 10.296875 -16.535156 9.632812 -17.265625 8.3125 -17.265625 C 7.050781 -17.265625 6.421875 -16.59375 6.421875 -15.25 C 6.421875 -14.007812 7.148438 -13.164062 8.609375 -12.71875 L 9.359375 -12.46875 C 11.660156 -11.851562 13.226562 -11.003906 14.0625 -9.921875 C 14.90625 -8.847656 15.328125 -7.445312 15.328125 -5.71875 C 15.328125 -3.8125 14.765625 -2.3125 13.640625 -1.21875 C 12.523438 -0.125 10.765625 0.421875 8.359375 0.421875 Z M 8.359375 0.421875 "/></g></g></g><g fill="#ffffff" fill-opacity="1"><g transform="translate(191.487298, 595.28483)"><g><path d="M 1.890625 0 L 1.890625 -29.40625 L 7.46875 -29.40625 L 14.40625 -12.765625 L 14.40625 -29.40625 L 19.953125 -29.40625 L 19.953125 0 L 14.40625 0 L 7.46875 -16.625 L 7.46875 0 Z M 1.890625 0 "/></g></g></g><g fill="#ffffff" fill-opacity="1"><g transform="translate(213.321159, 595.28483)"><g><path d="M 8.609375 0.421875 C 6.054688 0.421875 4.191406 -0.441406 3.015625 -2.171875 C 1.847656 -3.910156 1.265625 -6.6875 1.265625 -10.5 C 1.265625 -14.332031 1.847656 -17.109375 3.015625 -18.828125 C 4.191406 -20.554688 6.054688 -21.421875 8.609375 -21.421875 C 11.160156 -21.421875 13.019531 -20.554688 14.1875 -18.828125 C 15.363281 -17.109375 15.953125 -14.332031 15.953125 -10.5 C 15.953125 -6.6875 15.363281 -3.910156 14.1875 -2.171875 C 13.019531 -0.441406 11.160156 0.421875 8.609375 0.421875 Z M 6.21875 -10.5 C 6.21875 -8.675781 6.300781 -7.273438 6.46875 -6.296875 C 6.632812 -5.316406 6.898438 -4.644531 7.265625 -4.28125 C 7.628906 -3.914062 8.078125 -3.734375 8.609375 -3.734375 C 9.171875 -3.734375 9.625 -3.914062 9.96875 -4.28125 C 10.320312 -4.644531 10.585938 -5.316406 10.765625 -6.296875 C 10.953125 -7.273438 11.046875 -8.675781 11.046875 -10.5 C 11.046875 -12.34375 10.953125 -13.75 10.765625 -14.71875 C 10.585938 -15.6875 10.320312 -16.351562 9.96875 -16.71875 C 9.625 -17.082031 9.171875 -17.265625 8.609375 -17.265625 C 8.078125 -17.265625 7.628906 -17.082031 7.265625 -16.71875 C 6.898438 -16.351562 6.632812 -15.6875 6.46875 -14.71875 C 6.300781 -13.75 6.21875 -12.34375 6.21875 -10.5 Z M 6.21875 -10.5 "/></g></g></g><g fill="#ffffff" fill-opacity="1"><g transform="translate(230.536322, 595.28483)"><g/></g></g><g fill="#ffffff" fill-opacity="1"><g transform="translate(241.663194, 595.28483)"><g><path d="M 7.09375 0.421875 C 5.300781 0.421875 3.984375 -0.0390625 3.140625 -0.96875 C 2.304688 -1.894531 1.890625 -3.296875 1.890625 -5.171875 L 1.890625 -21 L 6.84375 -21 L 6.84375 -5.796875 C 6.84375 -5.097656 6.984375 -4.578125 7.265625 -4.234375 C 7.546875 -3.898438 8.007812 -3.734375 8.65625 -3.734375 C 9.070312 -3.734375 9.46875 -3.816406 9.84375 -3.984375 C 10.226562 -4.148438 10.5625 -4.363281 10.84375 -4.625 L 10.84375 -21 L 15.75 -21 L 15.75 0 L 12.390625 0 L 11.71875 -1.6875 C 11.21875 -1.09375 10.582031 -0.59375 9.8125 -0.1875 C 9.039062 0.21875 8.132812 0.421875 7.09375 0.421875 Z M 7.09375 0.421875 "/></g></g></g><g fill="#ffffff" fill-opacity="1"><g transform="translate(259.29823, 595.28483)"><g><path d="M 9.90625 0.421875 C 9.289062 0.421875 8.722656 0.320312 8.203125 0.125 C 7.691406 -0.0703125 7.238281 -0.335938 6.84375 -0.671875 L 6.84375 10.5 L 1.890625 10.5 L 1.890625 -21 L 5.25 -21 L 5.921875 -19.359375 C 6.398438 -19.953125 6.96875 -20.441406 7.625 -20.828125 C 8.28125 -21.222656 9.039062 -21.421875 9.90625 -21.421875 C 12.175781 -21.421875 13.785156 -20.59375 14.734375 -18.9375 C 15.691406 -17.289062 16.171875 -14.476562 16.171875 -10.5 C 16.171875 -6.519531 15.691406 -3.703125 14.734375 -2.046875 C 13.785156 -0.398438 12.175781 0.421875 9.90625 0.421875 Z M 6.84375 -4.5 C 7.289062 -3.988281 7.820312 -3.734375 8.4375 -3.734375 C 9.113281 -3.734375 9.65625 -3.925781 10.0625 -4.3125 C 10.46875 -4.707031 10.765625 -5.394531 10.953125 -6.375 C 11.148438 -7.363281 11.25 -8.738281 11.25 -10.5 C 11.25 -12.257812 11.148438 -13.628906 10.953125 -14.609375 C 10.765625 -15.597656 10.46875 -16.285156 10.0625 -16.671875 C 9.65625 -17.066406 9.113281 -17.265625 8.4375 -17.265625 C 8.132812 -17.265625 7.847656 -17.203125 7.578125 -17.078125 C 7.316406 -16.953125 7.070312 -16.773438 6.84375 -16.546875 Z M 6.84375 -4.5 "/></g></g></g><g fill="#ffffff" fill-opacity="1"><g transform="translate(276.387394, 595.28483)"><g><path d="M 2.859375 0 L 2.859375 -16.84375 L 0.46875 -16.84375 L 0.46875 -21 L 2.859375 -21 L 2.859375 -26.171875 C 2.859375 -28.097656 3.332031 -29.535156 4.28125 -30.484375 C 5.238281 -31.441406 6.722656 -31.921875 8.734375 -31.921875 C 9.296875 -31.921875 9.820312 -31.882812 10.3125 -31.8125 C 10.800781 -31.738281 11.269531 -31.632812 11.71875 -31.5 L 11.71875 -27.671875 C 11.351562 -27.734375 10.96875 -27.765625 10.5625 -27.765625 C 10.15625 -27.765625 9.753906 -27.765625 9.359375 -27.765625 C 8.296875 -27.765625 7.765625 -27.175781 7.765625 -26 L 7.765625 -21 L 11.71875 -21 L 11.71875 -16.84375 L 7.765625 -16.84375 L 7.765625 0 Z M 2.859375 0 "/></g></g></g><g fill="#ffffff" fill-opacity="1"><g transform="translate(288.396022, 595.28483)"><g><path d="M 1.890625 0 L 1.890625 -21 L 5.25 -21 L 5.875 -19.453125 C 6.351562 -20.035156 6.9375 -20.507812 7.625 -20.875 C 8.3125 -21.238281 9.101562 -21.421875 10 -21.421875 C 10.46875 -21.421875 10.878906 -21.382812 11.234375 -21.3125 C 11.585938 -21.238281 11.890625 -21.132812 12.140625 -21 L 12.140625 -17.171875 C 11.972656 -17.234375 11.796875 -17.265625 11.609375 -17.265625 C 11.429688 -17.265625 11.242188 -17.265625 11.046875 -17.265625 C 9.835938 -17.265625 8.867188 -16.929688 8.140625 -16.265625 C 7.421875 -15.609375 6.988281 -14.664062 6.84375 -13.4375 L 6.84375 0 Z M 1.890625 0 "/></g></g></g><g fill="#ffffff" fill-opacity="1"><g transform="translate(300.530547, 595.28483)"><g><path d="M 8.609375 0.421875 C 6.054688 0.421875 4.191406 -0.441406 3.015625 -2.171875 C 1.847656 -3.910156 1.265625 -6.6875 1.265625 -10.5 C 1.265625 -14.332031 1.847656 -17.109375 3.015625 -18.828125 C 4.191406 -20.554688 6.054688 -21.421875 8.609375 -21.421875 C 11.160156 -21.421875 13.019531 -20.554688 14.1875 -18.828125 C 15.363281 -17.109375 15.953125 -14.332031 15.953125 -10.5 C 15.953125 -6.6875 15.363281 -3.910156 14.1875 -2.171875 C 13.019531 -0.441406 11.160156 0.421875 8.609375 0.421875 Z M 6.21875 -10.5 C 6.21875 -8.675781 6.300781 -7.273438 6.46875 -6.296875 C 6.632812 -5.316406 6.898438 -4.644531 7.265625 -4.28125 C 7.628906 -3.914062 8.078125 -3.734375 8.609375 -3.734375 C 9.171875 -3.734375 9.625 -3.914062 9.96875 -4.28125 C 10.320312 -4.644531 10.585938 -5.316406 10.765625 -6.296875 C 10.953125 -7.273438 11.046875 -8.675781 11.046875 -10.5 C 11.046875 -12.34375 10.953125 -13.75 10.765625 -14.71875 C 10.585938 -15.6875 10.320312 -16.351562 9.96875 -16.71875 C 9.625 -17.082031 9.171875 -17.265625 8.609375 -17.265625 C 8.078125 -17.265625 7.628906 -17.082031 7.265625 -16.71875 C 6.898438 -16.351562 6.632812 -15.6875 6.46875 -14.71875 C 6.300781 -13.75 6.21875 -12.34375 6.21875 -10.5 Z M 6.21875 -10.5 "/></g></g></g><g fill="#ffffff" fill-opacity="1"><g transform="translate(317.74571, 595.28483)"><g><path d="M 10.84375 -15.25 C 10.84375 -16.59375 10.222656 -17.265625 8.984375 -17.265625 C 8.566406 -17.265625 8.179688 -17.179688 7.828125 -17.015625 C 7.484375 -16.847656 7.15625 -16.648438 6.84375 -16.421875 L 6.84375 0 L 1.890625 0 L 1.890625 -21 L 5.25 -21 L 5.921875 -19.3125 C 6.453125 -19.90625 7.09375 -20.40625 7.84375 -20.8125 C 8.601562 -21.21875 9.503906 -21.421875 10.546875 -21.421875 C 12.359375 -21.421875 13.675781 -20.957031 14.5 -20.03125 C 15.332031 -19.101562 15.75 -17.71875 15.75 -15.875 L 15.75 0 L 10.84375 0 Z M 10.84375 -15.25 "/></g></g></g><g fill="#ffffff" fill-opacity="1"><g transform="translate(335.380746, 595.28483)"><g><path d="M 8.734375 0.421875 C 4.816406 0.421875 2.859375 -1.46875 2.859375 -5.25 L 2.859375 -16.84375 L 0.46875 -16.84375 L 0.46875 -21 L 2.859375 -21 L 2.859375 -27.296875 L 7.765625 -27.296875 L 7.765625 -21 L 11.71875 -21 L 11.71875 -16.84375 L 7.765625 -16.84375 L 7.765625 -5.375 C 7.765625 -4.28125 8.296875 -3.734375 9.359375 -3.734375 C 9.753906 -3.734375 10.144531 -3.738281 10.53125 -3.75 C 10.925781 -3.769531 11.320312 -3.796875 11.71875 -3.828125 L 11.71875 0 C 11.269531 0.113281 10.800781 0.210938 10.3125 0.296875 C 9.820312 0.378906 9.296875 0.421875 8.734375 0.421875 Z M 8.734375 0.421875 "/></g></g></g><g fill="#ffffff" fill-opacity="1"><g transform="translate(346.759457, 595.28483)"><g/></g></g><g fill="#ffffff" fill-opacity="1"><g transform="translate(357.886329, 595.28483)"><g><path d="M 8.484375 0.421875 C 5.992188 0.421875 4.164062 -0.441406 3 -2.171875 C 1.84375 -3.910156 1.265625 -6.6875 1.265625 -10.5 C 1.265625 -14.332031 1.84375 -17.109375 3 -18.828125 C 4.164062 -20.554688 5.992188 -21.421875 8.484375 -21.421875 C 10.640625 -21.421875 12.289062 -20.78125 13.4375 -19.5 C 14.582031 -18.226562 15.285156 -16.191406 15.546875 -13.390625 L 10.625 -13.390625 C 10.488281 -14.960938 10.242188 -16 9.890625 -16.5 C 9.535156 -17.007812 9.050781 -17.265625 8.4375 -17.265625 C 7.9375 -17.265625 7.515625 -17.082031 7.171875 -16.71875 C 6.835938 -16.351562 6.59375 -15.6875 6.4375 -14.71875 C 6.289062 -13.75 6.21875 -12.34375 6.21875 -10.5 C 6.21875 -8.675781 6.289062 -7.273438 6.4375 -6.296875 C 6.59375 -5.316406 6.835938 -4.644531 7.171875 -4.28125 C 7.515625 -3.914062 7.9375 -3.734375 8.4375 -3.734375 C 9.050781 -3.734375 9.535156 -3.992188 9.890625 -4.515625 C 10.242188 -5.035156 10.488281 -6.066406 10.625 -7.609375 L 15.546875 -7.609375 C 15.285156 -4.804688 14.582031 -2.765625 13.4375 -1.484375 C 12.289062 -0.210938 10.640625 0.421875 8.484375 0.421875 Z M 8.484375 0.421875 "/></g></g></g><g fill="#ffffff" fill-opacity="1"><g transform="translate(374.681609, 595.28483)"><g><path d="M 8.609375 0.421875 C 6.054688 0.421875 4.191406 -0.441406 3.015625 -2.171875 C 1.847656 -3.910156 1.265625 -6.6875 1.265625 -10.5 C 1.265625 -14.332031 1.847656 -17.109375 3.015625 -18.828125 C 4.191406 -20.554688 6.054688 -21.421875 8.609375 -21.421875 C 11.160156 -21.421875 13.019531 -20.554688 14.1875 -18.828125 C 15.363281 -17.109375 15.953125 -14.332031 15.953125 -10.5 C 15.953125 -6.6875 15.363281 -3.910156 14.1875 -2.171875 C 13.019531 -0.441406 11.160156 0.421875 8.609375 0.421875 Z M 6.21875 -10.5 C 6.21875 -8.675781 6.300781 -7.273438 6.46875 -6.296875 C 6.632812 -5.316406 6.898438 -4.644531 7.265625 -4.28125 C 7.628906 -3.914062 8.078125 -3.734375 8.609375 -3.734375 C 9.171875 -3.734375 9.625 -3.914062 9.96875 -4.28125 C 10.320312 -4.644531 10.585938 -5.316406 10.765625 -6.296875 C 10.953125 -7.273438 11.046875 -8.675781 11.046875 -10.5 C 11.046875 -12.34375 10.953125 -13.75 10.765625 -14.71875 C 10.585938 -15.6875 10.320312 -16.351562 9.96875 -16.71875 C 9.625 -17.082031 9.171875 -17.265625 8.609375 -17.265625 C 8.078125 -17.265625 7.628906 -17.082031 7.265625 -16.71875 C 6.898438 -16.351562 6.632812 -15.6875 6.46875 -14.71875 C 6.300781 -13.75 6.21875 -12.34375 6.21875 -10.5 Z M 6.21875 -10.5 "/></g></g></g><g fill="#ffffff" fill-opacity="1"><g transform="translate(391.896772, 595.28483)"><g><path d="M 8.359375 0.421875 C 5.953125 0.421875 4.128906 -0.164062 2.890625 -1.34375 C 1.660156 -2.519531 1.046875 -4.160156 1.046875 -6.265625 L 1.046875 -6.59375 L 6 -6.59375 L 6 -6.265625 C 6 -4.578125 6.757812 -3.734375 8.28125 -3.734375 C 8.976562 -3.734375 9.507812 -3.921875 9.875 -4.296875 C 10.238281 -4.679688 10.421875 -5.195312 10.421875 -5.84375 C 10.421875 -6.59375 10.207031 -7.175781 9.78125 -7.59375 C 9.363281 -8.019531 8.773438 -8.34375 8.015625 -8.5625 L 7.265625 -8.78125 C 5.273438 -9.34375 3.8125 -10.164062 2.875 -11.25 C 1.9375 -12.34375 1.46875 -13.726562 1.46875 -15.40625 C 1.46875 -17.207031 1.984375 -18.660156 3.015625 -19.765625 C 4.054688 -20.867188 5.78125 -21.421875 8.1875 -21.421875 C 10.59375 -21.421875 12.3125 -20.898438 13.34375 -19.859375 C 14.382812 -18.828125 14.90625 -17.234375 14.90625 -15.078125 L 14.90625 -14.78125 L 10.296875 -14.78125 L 10.296875 -15.078125 C 10.296875 -16.535156 9.632812 -17.265625 8.3125 -17.265625 C 7.050781 -17.265625 6.421875 -16.59375 6.421875 -15.25 C 6.421875 -14.007812 7.148438 -13.164062 8.609375 -12.71875 L 9.359375 -12.46875 C 11.660156 -11.851562 13.226562 -11.003906 14.0625 -9.921875 C 14.90625 -8.847656 15.328125 -7.445312 15.328125 -5.71875 C 15.328125 -3.8125 14.765625 -2.3125 13.640625 -1.21875 C 12.523438 -0.125 10.765625 0.421875 8.359375 0.421875 Z M 8.359375 0.421875 "/></g></g></g><g fill="#ffffff" fill-opacity="1"><g transform="translate(408.272167, 595.28483)"><g><path d="M 8.734375 0.421875 C 4.816406 0.421875 2.859375 -1.46875 2.859375 -5.25 L 2.859375 -16.84375 L 0.46875 -16.84375 L 0.46875 -21 L 2.859375 -21 L 2.859375 -27.296875 L 7.765625 -27.296875 L 7.765625 -21 L 11.71875 -21 L 11.71875 -16.84375 L 7.765625 -16.84375 L 7.765625 -5.375 C 7.765625 -4.28125 8.296875 -3.734375 9.359375 -3.734375 C 9.753906 -3.734375 10.144531 -3.738281 10.53125 -3.75 C 10.925781 -3.769531 11.320312 -3.796875 11.71875 -3.828125 L 11.71875 0 C 11.269531 0.113281 10.800781 0.210938 10.3125 0.296875 C 9.820312 0.378906 9.296875 0.421875 8.734375 0.421875 Z M 8.734375 0.421875 "/></g></g></g><g fill="#ffffff" fill-opacity="1"><g transform="translate(219.553706, 653.784828)"><g><path d="M 10.203125 0.421875 C 7.179688 0.421875 4.898438 -0.210938 3.359375 -1.484375 C 1.816406 -2.765625 1.046875 -4.898438 1.046875 -7.890625 L 1.046875 -8.859375 L 6.640625 -8.859375 L 6.640625 -7.6875 C 6.640625 -6.644531 6.953125 -5.832031 7.578125 -5.25 C 8.210938 -4.664062 9.085938 -4.375 10.203125 -4.375 C 11.347656 -4.375 12.222656 -4.703125 12.828125 -5.359375 C 13.429688 -6.015625 13.734375 -6.875 13.734375 -7.9375 C 13.734375 -8.882812 13.476562 -9.660156 12.96875 -10.265625 C 12.46875 -10.867188 11.6875 -11.378906 10.625 -11.796875 L 8.0625 -12.9375 C 6.800781 -13.414062 5.671875 -14.003906 4.671875 -14.703125 C 3.679688 -15.398438 2.898438 -16.296875 2.328125 -17.390625 C 1.753906 -18.484375 1.46875 -19.828125 1.46875 -21.421875 C 1.46875 -24.304688 2.222656 -26.425781 3.734375 -27.78125 C 5.242188 -29.132812 7.441406 -29.8125 10.328125 -29.8125 C 13.128906 -29.8125 15.25 -29.144531 16.6875 -27.8125 C 18.132812 -26.488281 18.859375 -24.398438 18.859375 -21.546875 L 18.859375 -20.578125 L 13.3125 -20.578125 L 13.3125 -21.546875 C 13.3125 -22.773438 13.046875 -23.671875 12.515625 -24.234375 C 11.984375 -24.796875 11.195312 -25.078125 10.15625 -25.078125 C 8.09375 -25.078125 7.0625 -24 7.0625 -21.84375 C 7.0625 -21.050781 7.285156 -20.289062 7.734375 -19.5625 C 8.179688 -18.84375 8.921875 -18.285156 9.953125 -17.890625 L 12.4375 -16.796875 C 13.863281 -16.296875 15.085938 -15.6875 16.109375 -14.96875 C 17.128906 -14.257812 17.910156 -13.359375 18.453125 -12.265625 C 19.003906 -11.171875 19.28125 -9.785156 19.28125 -8.109375 C 19.28125 -6.515625 18.960938 -5.070312 18.328125 -3.78125 C 17.703125 -2.488281 16.71875 -1.460938 15.375 -0.703125 C 14.03125 0.046875 12.304688 0.421875 10.203125 0.421875 Z M 10.203125 0.421875 "/></g></g></g><g fill="#ffffff" fill-opacity="1"><g transform="translate(240.001951, 653.784828)"><g><path d="M 18.6875 -15.546875 C 18.6875 -16.128906 18.570312 -16.5625 18.34375 -16.84375 C 18.125 -17.125 17.734375 -17.265625 17.171875 -17.265625 C 16.804688 -17.265625 16.457031 -17.203125 16.125 -17.078125 C 15.789062 -16.953125 15.5 -16.773438 15.25 -16.546875 L 15.25 0 L 10.296875 0 L 10.296875 -15.546875 C 10.296875 -16.128906 10.179688 -16.5625 9.953125 -16.84375 C 9.734375 -17.125 9.34375 -17.265625 8.78125 -17.265625 C 8.414062 -17.265625 8.0625 -17.203125 7.71875 -17.078125 C 7.382812 -16.953125 7.09375 -16.773438 6.84375 -16.546875 L 6.84375 0 L 1.890625 0 L 1.890625 -21 L 5.25 -21 L 5.921875 -19.40625 C 6.398438 -19.988281 7 -20.46875 7.71875 -20.84375 C 8.445312 -21.226562 9.316406 -21.421875 10.328125 -21.421875 C 12.347656 -21.421875 13.734375 -20.816406 14.484375 -19.609375 C 14.960938 -20.140625 15.550781 -20.570312 16.25 -20.90625 C 16.945312 -21.25 17.773438 -21.421875 18.734375 -21.421875 C 20.472656 -21.421875 21.722656 -20.976562 22.484375 -20.09375 C 23.253906 -19.21875 23.640625 -17.910156 23.640625 -16.171875 L 23.640625 0 L 18.6875 0 Z M 18.6875 -15.546875 "/></g></g></g><g fill="#ffffff" fill-opacity="1"><g transform="translate(265.530778, 653.784828)"><g><path d="M 11.96875 0 L 11.296875 -1.6875 C 10.710938 -1.039062 10.023438 -0.503906 9.234375 -0.078125 C 8.453125 0.335938 7.570312 0.546875 6.59375 0.546875 C 4.96875 0.546875 3.65625 0.078125 2.65625 -0.859375 C 1.664062 -1.796875 1.171875 -3.316406 1.171875 -5.421875 C 1.171875 -7.742188 1.988281 -9.554688 3.625 -10.859375 C 5.269531 -12.160156 7.394531 -12.8125 10 -12.8125 L 10.421875 -12.8125 L 10.421875 -15.125 C 10.421875 -16.488281 9.789062 -17.171875 8.53125 -17.171875 C 7.289062 -17.171875 6.671875 -16.488281 6.671875 -15.125 L 6.671875 -14.15625 L 1.71875 -14.15625 L 1.71875 -15.125 C 1.71875 -17.28125 2.332031 -18.851562 3.5625 -19.84375 C 4.800781 -20.84375 6.457031 -21.34375 8.53125 -21.34375 C 10.570312 -21.34375 12.210938 -20.859375 13.453125 -19.890625 C 14.703125 -18.921875 15.328125 -17.441406 15.328125 -15.453125 L 15.328125 0 Z M 6.09375 -6.046875 C 6.09375 -5.265625 6.285156 -4.660156 6.671875 -4.234375 C 7.066406 -3.816406 7.613281 -3.609375 8.3125 -3.609375 C 8.707031 -3.609375 9.078125 -3.707031 9.421875 -3.90625 C 9.773438 -4.101562 10.109375 -4.34375 10.421875 -4.625 L 10.421875 -9.453125 L 10 -9.453125 C 8.875 -9.453125 7.941406 -9.148438 7.203125 -8.546875 C 6.460938 -7.941406 6.09375 -7.109375 6.09375 -6.046875 Z M 6.09375 -6.046875 "/></g></g></g><g fill="#ffffff" fill-opacity="1"><g transform="translate(282.745941, 653.784828)"><g><path d="M 1.890625 0 L 1.890625 -31.5 L 6.84375 -31.5 L 6.84375 0 Z M 1.890625 0 "/></g></g></g><g fill="#ffffff" fill-opacity="1"><g transform="translate(291.479488, 653.784828)"><g><path d="M 1.890625 0 L 1.890625 -31.5 L 6.84375 -31.5 L 6.84375 0 Z M 1.890625 0 "/></g></g></g><g fill="#ffffff" fill-opacity="1"><g transform="translate(300.213034, 653.784828)"><g/></g></g><g fill="#ffffff" fill-opacity="1"><g transform="translate(311.339907, 653.784828)"><g><path d="M 9.90625 0.421875 C 9.039062 0.421875 8.28125 0.226562 7.625 -0.15625 C 6.96875 -0.550781 6.398438 -1.046875 5.921875 -1.640625 L 5.25 0 L 1.890625 0 L 1.890625 -31.5 L 6.84375 -31.5 L 6.84375 -20.328125 C 7.238281 -20.660156 7.691406 -20.925781 8.203125 -21.125 C 8.722656 -21.320312 9.289062 -21.421875 9.90625 -21.421875 C 12.175781 -21.421875 13.785156 -20.59375 14.734375 -18.9375 C 15.691406 -17.289062 16.171875 -14.476562 16.171875 -10.5 C 16.171875 -6.519531 15.691406 -3.703125 14.734375 -2.046875 C 13.785156 -0.398438 12.175781 0.421875 9.90625 0.421875 Z M 6.84375 -4.5 C 7.289062 -3.988281 7.820312 -3.734375 8.4375 -3.734375 C 9.113281 -3.734375 9.65625 -3.925781 10.0625 -4.3125 C 10.46875 -4.707031 10.765625 -5.394531 10.953125 -6.375 C 11.148438 -7.363281 11.25 -8.738281 11.25 -10.5 C 11.25 -12.257812 11.148438 -13.628906 10.953125 -14.609375 C 10.765625 -15.597656 10.46875 -16.285156 10.0625 -16.671875 C 9.65625 -17.066406 9.113281 -17.265625 8.4375 -17.265625 C 8.132812 -17.265625 7.847656 -17.203125 7.578125 -17.078125 C 7.316406 -16.953125 7.070312 -16.773438 6.84375 -16.546875 Z M 6.84375 -4.5 "/></g></g></g><g fill="#ffffff" fill-opacity="1"><g transform="translate(328.765012, 653.784828)"><g><path d="M 11.96875 0 L 11.296875 -1.6875 C 10.710938 -1.039062 10.023438 -0.503906 9.234375 -0.078125 C 8.453125 0.335938 7.570312 0.546875 6.59375 0.546875 C 4.96875 0.546875 3.65625 0.078125 2.65625 -0.859375 C 1.664062 -1.796875 1.171875 -3.316406 1.171875 -5.421875 C 1.171875 -7.742188 1.988281 -9.554688 3.625 -10.859375 C 5.269531 -12.160156 7.394531 -12.8125 10 -12.8125 L 10.421875 -12.8125 L 10.421875 -15.125 C 10.421875 -16.488281 9.789062 -17.171875 8.53125 -17.171875 C 7.289062 -17.171875 6.671875 -16.488281 6.671875 -15.125 L 6.671875 -14.15625 L 1.71875 -14.15625 L 1.71875 -15.125 C 1.71875 -17.28125 2.332031 -18.851562 3.5625 -19.84375 C 4.800781 -20.84375 6.457031 -21.34375 8.53125 -21.34375 C 10.570312 -21.34375 12.210938 -20.859375 13.453125 -19.890625 C 14.703125 -18.921875 15.328125 -17.441406 15.328125 -15.453125 L 15.328125 0 Z M 6.09375 -6.046875 C 6.09375 -5.265625 6.285156 -4.660156 6.671875 -4.234375 C 7.066406 -3.816406 7.613281 -3.609375 8.3125 -3.609375 C 8.707031 -3.609375 9.078125 -3.707031 9.421875 -3.90625 C 9.773438 -4.101562 10.109375 -4.34375 10.421875 -4.625 L 10.421875 -9.453125 L 10 -9.453125 C 8.875 -9.453125 7.941406 -9.148438 7.203125 -8.546875 C 6.460938 -7.941406 6.09375 -7.109375 6.09375 -6.046875 Z M 6.09375 -6.046875 "/></g></g></g><g fill="#ffffff" fill-opacity="1"><g transform="translate(345.980175, 653.784828)"><g><path d="M 8.734375 0.421875 C 4.816406 0.421875 2.859375 -1.46875 2.859375 -5.25 L 2.859375 -16.84375 L 0.46875 -16.84375 L 0.46875 -21 L 2.859375 -21 L 2.859375 -27.296875 L 7.765625 -27.296875 L 7.765625 -21 L 11.71875 -21 L 11.71875 -16.84375 L 7.765625 -16.84375 L 7.765625 -5.375 C 7.765625 -4.28125 8.296875 -3.734375 9.359375 -3.734375 C 9.753906 -3.734375 10.144531 -3.738281 10.53125 -3.75 C 10.925781 -3.769531 11.320312 -3.796875 11.71875 -3.828125 L 11.71875 0 C 11.269531 0.113281 10.800781 0.210938 10.3125 0.296875 C 9.820312 0.378906 9.296875 0.421875 8.734375 0.421875 Z M 8.734375 0.421875 "/></g></g></g><g fill="#ffffff" fill-opacity="1"><g transform="translate(357.988769, 653.784828)"><g><path d="M 8.484375 0.421875 C 5.992188 0.421875 4.164062 -0.441406 3 -2.171875 C 1.84375 -3.910156 1.265625 -6.6875 1.265625 -10.5 C 1.265625 -14.332031 1.84375 -17.109375 3 -18.828125 C 4.164062 -20.554688 5.992188 -21.421875 8.484375 -21.421875 C 10.640625 -21.421875 12.289062 -20.78125 13.4375 -19.5 C 14.582031 -18.226562 15.285156 -16.191406 15.546875 -13.390625 L 10.625 -13.390625 C 10.488281 -14.960938 10.242188 -16 9.890625 -16.5 C 9.535156 -17.007812 9.050781 -17.265625 8.4375 -17.265625 C 7.9375 -17.265625 7.515625 -17.082031 7.171875 -16.71875 C 6.835938 -16.351562 6.59375 -15.6875 6.4375 -14.71875 C 6.289062 -13.75 6.21875 -12.34375 6.21875 -10.5 C 6.21875 -8.675781 6.289062 -7.273438 6.4375 -6.296875 C 6.59375 -5.316406 6.835938 -4.644531 7.171875 -4.28125 C 7.515625 -3.914062 7.9375 -3.734375 8.4375 -3.734375 C 9.050781 -3.734375 9.535156 -3.992188 9.890625 -4.515625 C 10.242188 -5.035156 10.488281 -6.066406 10.625 -7.609375 L 15.546875 -7.609375 C 15.285156 -4.804688 14.582031 -2.765625 13.4375 -1.484375 C 12.289062 -0.210938 10.640625 0.421875 8.484375 0.421875 Z M 8.484375 0.421875 "/></g></g></g><g fill="#ffffff" fill-opacity="1"><g transform="translate(374.784049, 653.784828)"><g><path d="M 10.84375 -15.25 C 10.84375 -16.59375 10.222656 -17.265625 8.984375 -17.265625 C 8.566406 -17.265625 8.179688 -17.179688 7.828125 -17.015625 C 7.484375 -16.847656 7.15625 -16.648438 6.84375 -16.421875 L 6.84375 0 L 1.890625 0 L 1.890625 -31.5 L 6.84375 -31.5 L 6.84375 -20.203125 C 7.320312 -20.566406 7.867188 -20.859375 8.484375 -21.078125 C 9.097656 -21.304688 9.785156 -21.421875 10.546875 -21.421875 C 12.359375 -21.421875 13.675781 -20.957031 14.5 -20.03125 C 15.332031 -19.101562 15.75 -17.71875 15.75 -15.875 L 15.75 0 L 10.84375 0 Z M 10.84375 -15.25 "/></g></g></g><g fill="#ffffff" fill-opacity="1"><g transform="translate(243.073233, 712.284825)"><g><path d="M 1.890625 0 L 1.890625 -29.40625 L 9.703125 -29.40625 C 12.953125 -29.40625 15.296875 -28.59375 16.734375 -26.96875 C 18.179688 -25.34375 18.90625 -22.835938 18.90625 -19.453125 C 18.90625 -16.054688 18.175781 -13.566406 16.71875 -11.984375 C 15.257812 -10.410156 12.921875 -9.625 9.703125 -9.625 L 7.46875 -9.625 L 7.46875 0 Z M 7.46875 -14.40625 L 9.234375 -14.40625 C 10.640625 -14.40625 11.675781 -14.8125 12.34375 -15.625 C 13.019531 -16.4375 13.359375 -17.722656 13.359375 -19.484375 C 13.359375 -21.253906 13.019531 -22.550781 12.34375 -23.375 C 11.675781 -24.195312 10.640625 -24.609375 9.234375 -24.609375 L 7.46875 -24.609375 Z M 7.46875 -14.40625 "/></g></g></g><g fill="#ffffff" fill-opacity="1"><g transform="translate(262.807687, 712.284825)"><g><path d="M 1.890625 0 L 1.890625 -21 L 5.25 -21 L 5.875 -19.453125 C 6.351562 -20.035156 6.9375 -20.507812 7.625 -20.875 C 8.3125 -21.238281 9.101562 -21.421875 10 -21.421875 C 10.46875 -21.421875 10.878906 -21.382812 11.234375 -21.3125 C 11.585938 -21.238281 11.890625 -21.132812 12.140625 -21 L 12.140625 -17.171875 C 11.972656 -17.234375 11.796875 -17.265625 11.609375 -17.265625 C 11.429688 -17.265625 11.242188 -17.265625 11.046875 -17.265625 C 9.835938 -17.265625 8.867188 -16.929688 8.140625 -16.265625 C 7.421875 -15.609375 6.988281 -14.664062 6.84375 -13.4375 L 6.84375 0 Z M 1.890625 0 "/></g></g></g><g fill="#ffffff" fill-opacity="1"><g transform="translate(274.942212, 712.284825)"><g><path d="M 8.609375 0.421875 C 6.054688 0.421875 4.191406 -0.441406 3.015625 -2.171875 C 1.847656 -3.910156 1.265625 -6.6875 1.265625 -10.5 C 1.265625 -14.332031 1.847656 -17.109375 3.015625 -18.828125 C 4.191406 -20.554688 6.054688 -21.421875 8.609375 -21.421875 C 11.179688 -21.421875 13.046875 -20.554688 14.203125 -18.828125 C 15.367188 -17.109375 15.953125 -14.332031 15.953125 -10.5 C 15.953125 -10.21875 15.953125 -9.929688 15.953125 -9.640625 C 15.953125 -9.347656 15.941406 -9.046875 15.921875 -8.734375 L 6.265625 -8.734375 C 6.347656 -6.722656 6.582031 -5.382812 6.96875 -4.71875 C 7.363281 -4.0625 7.910156 -3.734375 8.609375 -3.734375 C 9.222656 -3.734375 9.710938 -3.941406 10.078125 -4.359375 C 10.441406 -4.785156 10.707031 -5.613281 10.875 -6.84375 L 15.75 -6.84375 C 15.4375 -4.320312 14.691406 -2.476562 13.515625 -1.3125 C 12.347656 -0.15625 10.710938 0.421875 8.609375 0.421875 Z M 6.265625 -12.3125 L 11 -12.3125 C 10.914062 -14.320312 10.675781 -15.65625 10.28125 -16.3125 C 9.894531 -16.96875 9.335938 -17.296875 8.609375 -17.296875 C 7.910156 -17.296875 7.363281 -16.96875 6.96875 -16.3125 C 6.582031 -15.65625 6.347656 -14.320312 6.265625 -12.3125 Z M 6.265625 -12.3125 "/></g></g></g><g fill="#ffffff" fill-opacity="1"><g transform="translate(292.157375, 712.284825)"><g><path d="M 8.609375 0.421875 C 6.054688 0.421875 4.191406 -0.441406 3.015625 -2.171875 C 1.847656 -3.910156 1.265625 -6.6875 1.265625 -10.5 C 1.265625 -14.332031 1.847656 -17.109375 3.015625 -18.828125 C 4.191406 -20.554688 6.054688 -21.421875 8.609375 -21.421875 C 11.160156 -21.421875 13.019531 -20.554688 14.1875 -18.828125 C 15.363281 -17.109375 15.953125 -14.332031 15.953125 -10.5 C 15.953125 -6.6875 15.363281 -3.910156 14.1875 -2.171875 C 13.019531 -0.441406 11.160156 0.421875 8.609375 0.421875 Z M 6.21875 -10.5 C 6.21875 -8.675781 6.300781 -7.273438 6.46875 -6.296875 C 6.632812 -5.316406 6.898438 -4.644531 7.265625 -4.28125 C 7.628906 -3.914062 8.078125 -3.734375 8.609375 -3.734375 C 9.171875 -3.734375 9.625 -3.914062 9.96875 -4.28125 C 10.320312 -4.644531 10.585938 -5.316406 10.765625 -6.296875 C 10.953125 -7.273438 11.046875 -8.675781 11.046875 -10.5 C 11.046875 -12.34375 10.953125 -13.75 10.765625 -14.71875 C 10.585938 -15.6875 10.320312 -16.351562 9.96875 -16.71875 C 9.625 -17.082031 9.171875 -17.265625 8.609375 -17.265625 C 8.078125 -17.265625 7.628906 -17.082031 7.265625 -16.71875 C 6.898438 -16.351562 6.632812 -15.6875 6.46875 -14.71875 C 6.300781 -13.75 6.21875 -12.34375 6.21875 -10.5 Z M 6.21875 -10.5 "/></g></g></g><g fill="#ffffff" fill-opacity="1"><g transform="translate(309.372538, 712.284825)"><g><path d="M 1.890625 0 L 1.890625 -21 L 5.25 -21 L 5.875 -19.453125 C 6.351562 -20.035156 6.9375 -20.507812 7.625 -20.875 C 8.3125 -21.238281 9.101562 -21.421875 10 -21.421875 C 10.46875 -21.421875 10.878906 -21.382812 11.234375 -21.3125 C 11.585938 -21.238281 11.890625 -21.132812 12.140625 -21 L 12.140625 -17.171875 C 11.972656 -17.234375 11.796875 -17.265625 11.609375 -17.265625 C 11.429688 -17.265625 11.242188 -17.265625 11.046875 -17.265625 C 9.835938 -17.265625 8.867188 -16.929688 8.140625 -16.265625 C 7.421875 -15.609375 6.988281 -14.664062 6.84375 -13.4375 L 6.84375 0 Z M 1.890625 0 "/></g></g></g><g fill="#ffffff" fill-opacity="1"><g transform="translate(321.507063, 712.284825)"><g><path d="M 7.515625 0.421875 C 5.242188 0.421875 3.632812 -0.398438 2.6875 -2.046875 C 1.738281 -3.703125 1.265625 -6.519531 1.265625 -10.5 C 1.265625 -14.476562 1.738281 -17.289062 2.6875 -18.9375 C 3.632812 -20.59375 5.242188 -21.421875 7.515625 -21.421875 C 8.160156 -21.421875 8.738281 -21.316406 9.25 -21.109375 C 9.769531 -20.898438 10.226562 -20.625 10.625 -20.28125 L 10.625 -31.5 L 15.546875 -31.5 L 15.546875 0 L 12.1875 0 L 11.515625 -1.6875 C 11.066406 -1.0625 10.507812 -0.550781 9.84375 -0.15625 C 9.1875 0.226562 8.410156 0.421875 7.515625 0.421875 Z M 6.21875 -10.5 C 6.21875 -8.738281 6.3125 -7.363281 6.5 -6.375 C 6.695312 -5.394531 7 -4.707031 7.40625 -4.3125 C 7.8125 -3.925781 8.335938 -3.734375 8.984375 -3.734375 C 9.316406 -3.734375 9.625 -3.8125 9.90625 -3.96875 C 10.1875 -4.125 10.425781 -4.3125 10.625 -4.53125 L 10.625 -16.5 C 10.175781 -17.007812 9.628906 -17.265625 8.984375 -17.265625 C 8.335938 -17.265625 7.8125 -17.066406 7.40625 -16.671875 C 7 -16.285156 6.695312 -15.597656 6.5 -14.609375 C 6.3125 -13.628906 6.21875 -12.257812 6.21875 -10.5 Z M 6.21875 -10.5 "/></g></g></g><g fill="#ffffff" fill-opacity="1"><g transform="translate(338.932168, 712.284825)"><g><path d="M 8.609375 0.421875 C 6.054688 0.421875 4.191406 -0.441406 3.015625 -2.171875 C 1.847656 -3.910156 1.265625 -6.6875 1.265625 -10.5 C 1.265625 -14.332031 1.847656 -17.109375 3.015625 -18.828125 C 4.191406 -20.554688 6.054688 -21.421875 8.609375 -21.421875 C 11.179688 -21.421875 13.046875 -20.554688 14.203125 -18.828125 C 15.367188 -17.109375 15.953125 -14.332031 15.953125 -10.5 C 15.953125 -10.21875 15.953125 -9.929688 15.953125 -9.640625 C 15.953125 -9.347656 15.941406 -9.046875 15.921875 -8.734375 L 6.265625 -8.734375 C 6.347656 -6.722656 6.582031 -5.382812 6.96875 -4.71875 C 7.363281 -4.0625 7.910156 -3.734375 8.609375 -3.734375 C 9.222656 -3.734375 9.710938 -3.941406 10.078125 -4.359375 C 10.441406 -4.785156 10.707031 -5.613281 10.875 -6.84375 L 15.75 -6.84375 C 15.4375 -4.320312 14.691406 -2.476562 13.515625 -1.3125 C 12.347656 -0.15625 10.710938 0.421875 8.609375 0.421875 Z M 6.265625 -12.3125 L 11 -12.3125 C 10.914062 -14.320312 10.675781 -15.65625 10.28125 -16.3125 C 9.894531 -16.96875 9.335938 -17.296875 8.609375 -17.296875 C 7.910156 -17.296875 7.363281 -16.96875 6.96875 -16.3125 C 6.582031 -15.65625 6.347656 -14.320312 6.265625 -12.3125 Z M 6.265625 -12.3125 "/></g></g></g><g fill="#ffffff" fill-opacity="1"><g transform="translate(356.147331, 712.284825)"><g><path d="M 1.890625 0 L 1.890625 -21 L 5.25 -21 L 5.875 -19.453125 C 6.351562 -20.035156 6.9375 -20.507812 7.625 -20.875 C 8.3125 -21.238281 9.101562 -21.421875 10 -21.421875 C 10.46875 -21.421875 10.878906 -21.382812 11.234375 -21.3125 C 11.585938 -21.238281 11.890625 -21.132812 12.140625 -21 L 12.140625 -17.171875 C 11.972656 -17.234375 11.796875 -17.265625 11.609375 -17.265625 C 11.429688 -17.265625 11.242188 -17.265625 11.046875 -17.265625 C 9.835938 -17.265625 8.867188 -16.929688 8.140625 -16.265625 C 7.421875 -15.609375 6.988281 -14.664062 6.84375 -13.4375 L 6.84375 0 Z M 1.890625 0 "/></g></g></g></svg>